<svg xmlns="http://www.w3.org/2000/svg" viewBox="0 0 859.7 139.8" fill="#AFAF54"><title>Asset 2</title><g id="Layer_2" data-name="Layer 2"><g id="BRUSH"><path d="M793.56,20.43c-1.81-.25-1-1.05,0-1.55.33-.17.77,0,1-.07s.12,0,.16,0c.68.12.61.53,1.34.6.33-.29,1.08-.27,1.58-.35a2.22,2.22,0,0,1-.15.25c-.2.29-.38.54,0,.8l.15.07a7.58,7.58,0,0,0,2.24.21c.3,0,.63,0,.72-.25h0v0c0-.1-.46-.23-.73-.22a3.2,3.2,0,0,1-1.07-.06c-.17-.11,0-.23.15-.41s.32-.57-.07-.72-.73,0-1-.23c0,0,.09,0,.06-.06-.43-.53-2.59-.21-2.86-.05l-.08,0c-.14,0-.18,0-.28,0-.53,0-1,0-1.57.08l.07-.06c-4.85-.47-9.76-.6-14.26.8C780.18,22.6,789.62,21,793.56,20.43Z"/><path d="M804,19.65a1.44,1.44,0,0,1,.33,0c.7.18,1.57.2,1.1.8,1.56,0,2.56-.51,4.17-.4-.16-.36,0-.82-.52-1-1.9.39-3.13-.61-4.73.38H804c-.12,0-.36,0-.36.13S803.85,19.65,804,19.65Z"/><path d="M761.37,14.45c-2.31-1.71-5.42-1.9-8.77-1.65,0,.36-.17.61-.64.82a14.35,14.35,0,0,1,2.91.83C757.07,14,759.17,14.89,761.37,14.45Z"/><path d="M572.36,10.38h3.75A8.39,8.39,0,0,0,572.36,10.38Z"/><path d="M500.82,9.38c.25,0,.47,0,.5-.21s-.16-.37-.48-.46-.47.08-.52.23S500.5,9.33,500.82,9.38Z"/><path d="M499.62,6.27c-.53,0-.54.4-.59.69h1C499.9,6.71,500.28,6.28,499.62,6.27Z"/><path d="M570,10.4a.83.83,0,0,0,.3-.14c-.15-.16-.41-.14-.64-.12a1.32,1.32,0,0,0-.4.11C569.41,10.5,569.75,10.42,570,10.4Z"/><polygon points="500.22 7.03 500.01 6.95 500.13 7.09 500.22 7.03"/><polygon points="499.73 7.98 499.52 7.9 499.63 8.04 499.73 7.98"/><path d="M423.3,5.05l-1,.32a1.26,1.26,0,0,0,1,.32Z"/><path d="M423.43,5.81a1.41,1.41,0,0,0,.4.11s.08-.07.12-.11l-.41-.11C423.26,5.64,423.21,5.69,423.43,5.81Z"/><path d="M419.34,6h.49Q419.59,5.68,419.34,6Z"/><polygon points="420.05 6.08 419.84 6 419.95 6.14 420.05 6.08"/><polygon points="423.42 6.5 423.3 6.64 423.51 6.57 423.42 6.5"/><path d="M815,72.84c1.18.23,2.33.06,3.54.21C818.78,72.29,815.59,72.54,815,72.84Z"/><path d="M798.38,11.39c0-.15.07-.3.54-.25-.07-.31-.18-.6-1.1-.51C797.91,10.93,797.75,11.34,798.38,11.39Z"/><path d="M800.53,10.64c0,.15-.07.3-.54.25l0,.51C801.35,11.79,801.58,10.55,800.53,10.64Z"/><path d="M816.91,15c-.81,0-2-.1-2.16.24C815.48,15.55,816.78,15.56,816.91,15Z"/><path d="M809.88,15.46c-.85,0-1.88,0-1.61.49C809.21,16,809.66,15.77,809.88,15.46Z"/><path d="M822,21.54c0-.84,1-1.33-.6-1.77C821.74,20.3,820.78,21.43,822,21.54Z"/><path d="M810.59,70.85c0-.4,1.38-.19,1.06-.75C810.52,69.88,809.23,70.74,810.59,70.85Z"/><path d="M790.75,110.57c2,.55,2.4-1.27.5-1A.91.91,0,0,1,790.75,110.57Z"/><path d="M789.12,110.56c0-.34.24-.55.52-.75h-2.7C786.79,110.47,787.7,110.64,789.12,110.56Z"/><path d="M813.6,114.17c-2.08-.7-2.35.92,0,0Z"/><path d="M720.44,130.23c.18-.78-2.64-1-2.71-.25C719.42,129.86,719.18,130.85,720.44,130.23Z"/><path d="M662.57,132.31l0,.76C664.18,133.44,664.13,132,662.57,132.31Z"/><path d="M664.75,132.82c-.16.34-.76.48-.51,1h1.63C666,133.26,665.7,132.89,664.75,132.82Z"/><path d="M692.95,134.17c-.14.34.37,1,.56.5S693.14,133.69,692.95,134.17Z"/><path d="M719,135.77c1.7.12,2.2-.31,2.68-.75C719.85,134.84,719.92,135.54,719,135.77Z"/><path d="M740.65,135.59c.33,0,.64,0,.55.25h1.08C743.1,135.23,740.42,135.1,740.65,135.59Z"/><path d="M813.78,136.58h2.71l0-.5C815.84,135.42,814.38,136.42,813.78,136.58Z"/><path d="M725,136.8c-3.48-.3-1.16.76,0,0Z"/><path d="M817.08,138.11c1.34-.18,2.26,1.11,3.25.26-1.28-.08-1.24-.78-2.2-1C818,137.71,817.26,137.78,817.08,138.11Z"/><path d="M820.31,137.61c.14.84,3.39,1,3.25,0C821.68,137.42,821.29,138.08,820.31,137.61Z"/><path d="M784.61,138.75c-.5.44,2-.07,1.62-.25A2.61,2.61,0,0,0,784.61,138.75Z"/><path d="M790.05,139.53c1.33-.33,2.27.74,2.71,0C792.43,139.39,790.17,138.94,790.05,139.53Z"/><path d="M807.64,12.68c.5-.69-3.05-.75-2.73-.51C805.63,12.43,806.91,12.42,807.64,12.68Z"/><path d="M808.64,111.39h-1.09l0-.5H807l0,.5,0,.5C807.88,111.86,808.91,111.93,808.64,111.39Z"/><path d="M808.69,112.9l-1.21.5.11-.75c-.72,0-.51-.45-1.1-.51l-.81.12-.82-.13c.41.68-2.56-.19-2.15.5,1.79.45-.6,1-1,1.25,1.09.83,2.71-.07,3.28.77l.81-.12-.26.38c.34.08,2.11.63,2.17,0-1.39-.34,1.92-.58,1.58-1.25l-.28-.38.26-.38Z"/><path d="M749.87,136.13l-.28-.38-.82-.13c-1.66.18-1.06-.7-2.72-.52l-.82-.13-.28-.37c-1.46,1.4-5.22,1.73-8,2.49,2.41.2,3.12.68,6.5.27-1.42.64,1,.41,1.65.76a3.08,3.08,0,0,1,3.24-.24c-.12-.56.41-.8,1.6-.75l-.28-.38a2.7,2.7,0,0,0,2.7-.24l-1.92.17A1.29,1.29,0,0,0,749.87,136.13Z"/><path d="M730.26,132.28c1.9-.65,2.56-.52,4.84-.74l-.28-.38-.28-.37c-1.18-.31-3.49-.85-2.21-1.52h-.54V129c-1.17-1.22-3.68,1-5.4.49-.11.48.63.55.57,1-1.5-.05-1.85.38-1.06.75l.82.12-.26.38C729.42,132.4,730.09,131,730.26,132.28Z"/><path d="M733,134.05c-.08.55.47.8,1.65.76.38-1.06,3.88-.69,4.83-1.49-3.06-.27.19-.42-1.12-1.27-3.24.29-8.24,1.44-11.91,0l-.81.12-.28-.38c-1.62.42-4.64.18-6.48.49l.28.38c-2.89-.32-6.21-.24-7.54,1.23l6.75-1.1c.63.39,1.57.62,2.18,1a6.29,6.29,0,0,0,3.23-.49c1.12.33,1.41,1,2.75,1.27C728.65,133.89,731,134.84,733,134.05Z"/><path d="M705,133.22c.24,0,.38.2-.13.24l.28.46-.8.29c-.16.34-.76.48-.52,1,4.47,0,6.54.38,9.2-.48-.1-.29.08-.71-.57-.75l-.82-.13.26-.38A63.16,63.16,0,0,1,705,133.22Z"/><path d="M698.29,131.92c-.05.31-.15.6-1.07.5l.29.46-.8.29v.25c0,.25-.43.3-.53.51,2-.1,2.81-.23,6-.23l.62-.38,1,.13C704,132,700.17,132.41,698.29,131.92Z"/><path d="M694.52,132.42c-3.37-1.61-7.42-.39-13-.55l-.81.12.26-.38c-.78-.1-.92-.3-1.63,0l.29.47a11.43,11.43,0,0,0-2.18-.35l.26-.37c-1.46-1.19-4.31-.4-6.5,0l.28.38-.81.12c1,.46-.42.64,0,1.51,1.56-.32,3.11-.19,3.81.52,1.67.2,1-.69,2.69-.5l-.28-.38a8.82,8.82,0,0,0,2.71,0l-.26.38c.72.27,2,.25,2.73.52.74-.15,0-1,1-1a28.4,28.4,0,0,0,10.83,0l-.28-.38Z"/><path d="M669.84,131.2l-1.63-.25.81-.12c-.54-.34-1.84-.34-2.19-.77a79.54,79.54,0,0,1-10.3-.28c.43.86-2.19.31-1.58,1.25l.81-.12.29.38c.64,0,1.53,0,1.63.25l.82.13-.26.38c1.66-.19.68.87,2.72.51.14-.86,2.42-.63,5.38-1l-.28-.38a6.14,6.14,0,0,0,.84.58c1,0,2.5.29,3-.32l.81-.12Z"/><path d="M733.44,130.27a11.28,11.28,0,0,0,2.14-.74l-.82-.3.25-.46c-1.08-.12-3.54-.59-2.15.24l.81.13-.81.12C732.76,129.74,733.49,129.83,733.44,130.27Z"/><path d="M718.41,134.26c-.25.12-.62-.05-.54.25C718.21,135.65,720.93,133.07,718.41,134.26Z"/><path d="M732.27,136.19l-.82-.13c-2.38-.25-4.17-.14-4.84.74,3.82.52,8,.66,9.74,0-.76-.58-2.65-.63-3.82-1Z"/><path d="M814.72,115.31l1.35-.25A4,4,0,0,0,814.72,115.31Z"/><path d="M791.28,118.76l2.44.13A11.14,11.14,0,0,0,791.28,118.76Z"/><path d="M824,134.1l-1.9-.13A15.16,15.16,0,0,0,824,134.1Z"/><path d="M642.71,129.44h2.71A18.6,18.6,0,0,0,642.71,129.44Z"/><path d="M821.14,112.94l1.34-.62A4.52,4.52,0,0,0,821.14,112.94Z"/><path d="M807.49,113.4l.92-.88A6.89,6.89,0,0,0,807.49,113.4Z"/><path d="M809,113.28c.77.07,1.4.11,1.9.13Z"/><path d="M805.76,114.53l-1.08.25A4.94,4.94,0,0,0,805.76,114.53Z"/><path d="M805.69,112.26l1.32-.88C806.58,111.6,805.85,111.85,805.69,112.26Z"/><path d="M807,111.39l-1.38-.89A4.17,4.17,0,0,0,807,111.39Z"/><path d="M801.31,110.86a2.18,2.18,0,0,0,.8-.38Z"/><path d="M817.2,133.32a9.18,9.18,0,0,0,1.09.13Z"/><path d="M811.91,137.46a1.71,1.71,0,0,0-.2-.51Z"/><path d="M754.46,135.76h1.08A2.75,2.75,0,0,0,754.46,135.76Z"/><path d="M737.53,131.17h-2.71C735.72,131.17,736.62,131.22,737.53,131.17Z"/><path d="M652.87,131.52l-.08.13,2.43-.25A4.37,4.37,0,0,0,652.87,131.52Z"/><path d="M670.17,130.72l-.33.48C670.12,131,670.2,130.88,670.17,130.72Z"/><path d="M670.45,129.75a7.88,7.88,0,0,1-.74.33c.11.15.41.39.46.64l.7-1Z"/><path d="M681.22,131.49l-.53.5A1.4,1.4,0,0,0,681.22,131.49Z"/><path d="M693.71,132.54a22.93,22.93,0,0,0,3.27.3Z"/><path d="M705.12,133.92l-2.37-.6A7,7,0,0,0,705.12,133.92Z"/><path d="M725.64,132.14l1.06-.75A4.08,4.08,0,0,0,725.64,132.14Z"/><path d="M731.78,129.27l1.89-.12A13.25,13.25,0,0,0,731.78,129.27Z"/><path d="M739.7,129.38c1.4.07,2.81.14,4.27.13Z"/><path d="M734.76,129.23l4.95.15C738.07,129.3,736.44,129.21,734.76,129.23Z"/><path d="M770.66,125.87l-1.35.12A4,4,0,0,0,770.66,125.87Z"/><path d="M773.13,123.88l-5.81-.67A32.26,32.26,0,0,0,773.13,123.88Z"/><path d="M815.46,134.43c.13-.24-.15-.49-.42-.74l-1.3,1.63C814.25,135,814.84,134.77,815.46,134.43Z"/><path d="M749.59,135.75l.16-.51A1.6,1.6,0,0,0,749.59,135.75Z"/><path d="M749.59,135.75a9.09,9.09,0,0,0,1.71.32Z"/><path d="M655.4,131.66c.81.44,2.13.1,3.09,0l-3.26-.26Z"/><path d="M732,126.87c5.4.18,10.64.36,16,.44Z"/><path d="M700.1,129.29l-1.24.58a5.47,5.47,0,0,0,1,0C700.13,129.67,700.23,129.46,700.1,129.29Z"/><path d="M732.27,136.19l-.3-1A1.89,1.89,0,0,0,732.27,136.19Z"/><path d="M821.49,14.3c-.58,1.63,2.62.19,0,0Z"/><path d="M855.53,35h-1.15l0,.54h1.15Z"/><path d="M853.15,51.68c.46-.61,3.27-.06,2.95-1.06C854.86,49.59,851.05,51.08,853.15,51.68Z"/><path d="M856.21,56.88c-1.69.35-3.31.2-4-.56.55-1.09,2.19-2,.2-2.69-.18,1.12-2.9,1-4.69,1.32.32-1.61-4-1.13-3.82-2.71,3.42-1.26,2-3.71-.78-4.86a4.49,4.49,0,0,0,2.94-1.06l-.85-.14.06-.07,3-.07a12.58,12.58,0,0,0-3,.06l.26-.32a20.38,20.38,0,0,0-7-2c.44,0,1-.08.51-.16-.64,0-1.12,0-1.67.07a20.94,20.94,0,0,0-2.24,0c-1.32,0-1.45,0-1.26.12-.28,0-.55,0-.83.09-.05-.2-.3-.32-.55-.44a17.26,17.26,0,0,0,3-.15c.2,0,.52-.1-.05-.14a5.92,5.92,0,0,0-1.35,0,8.87,8.87,0,0,1-1.94.07l-.12-.09.85-.05h0q.1,0,0,0h0c.37-.09,1.51-.16.47-.27l-.46,0,.14-.17h5.12a5.51,5.51,0,0,0,1.43-.08,5.92,5.92,0,0,0-1.3-.06,12.51,12.51,0,0,1-2.19-.12h2.39c.58,0,1.44,0,.79-.1h0a9.11,9.11,0,0,1-1.15-.12h5c2,.08,3.93,0,5.88,0,1.45,0,2.51,0,2.47-.16,0,0,1.14,0,.64-.1a8.79,8.79,0,0,0-1.27,0c-3.41.11-6.43-.07-9.63-.1h0c-.48,0-1.13,0-1.63,0,1.2-1.23,6.65-.36,7.5-1.76-.54-.89-3.51-.68-4.49-1.37-1-2.35,6.73-1.29,8.15-1.57a3.65,3.65,0,0,1-1.37-1h.13a4.71,4.71,0,0,0,1.24-.06,5.18,5.18,0,0,0-1.47-.12,1.29,1.29,0,0,1-.11-.35c.4,0,.78,0,1.11,0a12.73,12.73,0,0,0,2.77,0c.77-.12.45-.39-.64-.43l-3.24-.12s0,0,0-.06c3.86-.43,8.79-.33,10.46-1.83-3.82-1.23-6.33-.25-10.88-.33a1,1,0,0,1-.47-1.35c-4,.87-7.48-.43-11,1.28a3.35,3.35,0,0,0-1.73-.74,1.63,1.63,0,0,0,.55-.05c.1-.08-.64-.09-1.32-.1h-.1c-1.18-.17-2.52-.27-3.6-.49a3.61,3.61,0,0,1,.41-.84h.9c1.9,0,3.75.16,5.85,0-1-.15-3.13-.07-3.87-.23a1.15,1.15,0,0,0-.52.1,15.49,15.49,0,0,1-2.21-.15l.06-.09a4,4,0,0,1,.51-.09c1.34-.15,1.41-.19-.31-.22l.27-.42h.22c.33,0,.87,0,.73.06s-.58.1.32.12a8.48,8.48,0,0,0,1.4-.06c1.11-.2-.74-.19-2-.22l-.63,0,0-.07,1.06-.05,1.08,0h0c-.05-.15.24-.31-1.88-.35.1-.19.2-.37.28-.55l1.82-.06c-.19-.1-1.6-.11-1.72-.19h0s0,0,0,0a11,11,0,0,1,1.84,0c1.87.15,1.87.15,2.46-.09h0l-.36-.26h0c1.19-.09,1.44-.19-.12-.27l-.06,0-.21,0v-.1H837a8.54,8.54,0,0,0,2.05-.1,7.86,7.86,0,0,0-2.16-.13l-1.94-.08c-.36-.05-1.9-.12.21-.14,1.73,0,3.45-.07,5.12,0,.89.06,2.09,0,3,.06a13,13,0,0,0,2.52,0,4.49,4.49,0,0,1-1.14.57,3.33,3.33,0,0,0,2.92-.79,3.94,3.94,0,0,0-1.22,0c0-.12-.27-.24-.89-.26-2.22-.07-4.23-.19-6.62-.21-2.7-.07-5.17-.18-7.46-.32h-.13l-.24,0-.06,0-.9,0a37.94,37.94,0,0,1-3.88-.2h0a8,8,0,0,0-1.86-.17h0a20.42,20.42,0,0,0-2-.25,2.17,2.17,0,0,1,.21-.23,6,6,0,0,0-1.37.15c-1.56-.1-3.37-.17-5.14-.24l-.49,0q.28-.2.53-.42c2.26,0,4.58.12,6.65.23,1.39.12,2.85.23,4.13.36a11.12,11.12,0,0,0,1.81.06c.85,0,1-.09.36-.16s-.11-.08.58-.09h0l1.83.09h0l1.06.24a4.15,4.15,0,0,0,1.21.07,23.13,23.13,0,0,0,2.71-.15c.16-.07-.58-.11-1.33-.13l-3-.09-.58-.07c.72-.06,1.92,0,2.45-.13h0c1.32.06,2.53.15,4.55.15-1.49-.18-3.36-.24-5.07-.32l-8.22-.36c-1.12-.09-2.38-.15-3.67-.21.21,0,.42-.12.43-.22a.08.08,0,0,1,0,0l0,0a1.29,1.29,0,0,0-.88-.18,7.43,7.43,0,0,1-1.18,0c-.38,0-1-.07-1.3-.07s-.69.07-.76.25h0v0c0,.06.11.11.23.15l-.54,0h0l-.73,0a3.67,3.67,0,0,0,.86-3.14,12.84,12.84,0,0,1-2.55.36c.23-.22.6-.42-.16-.56-.05.22-.55.43-.4.6-2.07.11-4.34.12-5.57.64h0c-2.67-.11-5.56-.33-7.22,1.24,0,0,0,0,0,0s-.12,0-.39,0h-2.24a2.14,2.14,0,0,0-.36,0l-4.57-.15c-.56-.77-3.45-1.12-4.83-.18l-6-.16h0c-4.2-.17-8.77-.21-13.17-.31h0c-.59,0-1.15-.06-1.77-.07l-18-.26c-.25-.1-.76-.3-.62-.71a18.19,18.19,0,0,0,6-.61c-.57-.08-1.12-.19-1.14-.62,1.78-.05,4,0,5.37-.81-3.06-.36-6.43-.27-9.25-1.19l.9-.09a8.07,8.07,0,0,0,2-.35c.09,0,.15-.06.13-.12s0-.11-.2-.14a1.29,1.29,0,0,0-.75,0,6.57,6.57,0,0,1-1.45.23,12.71,12.71,0,0,0-1.45.18c-1.82-.06-5.49.71-7.06.2l-.33.14c-.55,0-1.11-.09-1.6-.1-1.17,0-2.39,0-3.61.07a2,2,0,0,0,.91-.88h0l2.47-1.17a.94.94,0,0,0,.75-1h0c1.36-2.1,1.28-2.16-1.17-2.24s-5.14.53-7.71.08H725q0-.23,0-.46l6.28-.8c-.37-.46-.66-.65-.95-.64-5.16.18-10.32.05-15.49.18-7.58.19-15.17,0-22.75.06a5.7,5.7,0,0,0-3,.42c6.46.38,12.53-.36,18.45.86a1,1,0,0,0,.56-.18c1.22-.7,2.39-1.06,3.43.22a5.93,5.93,0,0,1,3.76-.79c.21,0,.46,0,.62.06a5.44,5.44,0,0,0,5.17.15c.76-.34,2.53-.34,1.94,1.39h0l-2.52,0H679.75c-.83,0-1.71-.13-2.34.52h-1.25c-.35-.17-.7-.47-1.06-.47q-5.91-.05-11.82,0a3.13,3.13,0,0,0-1.07.46h0l-3.76,0H617.2l1.06-.37a.6.6,0,0,0,.58-.56h0c1.06-1.22,1-1.26-.91-1.31a56.92,56.92,0,0,1-6,0H606v-.27l4.91-.47a1.07,1.07,0,0,0-.74-.37c-4,.11-8.07,0-12.11.11-5.05.1-10.11,0-15.17,0V10l6.28-.8c-.37-.46-.66-.65-.95-.64-5.16.18-10.32.05-15.49.18-7.58.19-15.17,0-22.75.06a5.7,5.7,0,0,0-3,.42c6.46.38,12.53-.36,18.45.86a1,1,0,0,0,.56-.18c1.22-.7,2.39-1.06,3.43.22a5.93,5.93,0,0,1,3.76-.79c.21,0,.46,0,.62.06a5.44,5.44,0,0,0,5.17.15c.63-.28,1.94-.31,2,.67h-.7a5.85,5.85,0,0,0-2.38.25c1,0,2.06.06,3.07.07a2,2,0,0,1-.09.41h0l-2.52,0H537.65c-.83,0-1.71-.13-2.34.52h-1.25c-.35-.17-.7-.47-1.06-.47q-5.91-.05-11.82,0a3.13,3.13,0,0,0-1.07.46h0l-3.37,0c.55-.16,1.11-.31,1.67-.45l-.07.08c.55.18,1.2.48,1.54.15s.14-.41-.07-.57c.61-.14,1.22-.27,1.83-.39H519c0-.39.19-.93-1-.59a1.52,1.52,0,0,0,.91.59c-4.4,0-8.76,0-13.11-.22h-3.17q-.63-.81-1.26,0h0a4.57,4.57,0,0,1-1.9-.53c-.66-1.27-.73-1.27-1.9,0l-1.26.52c.18-1.62-1.3-2.14-2.6-2.54-1.1-.34-1.31.79-2.05,1.17.71.68,1.68.73,2.12,1.39h-3.17a1.85,1.85,0,0,0-.43-.18,5.53,5.53,0,0,0-4.62.18h0c-5.4.11-10.77-.24-16.16-.51-2.3-.12-4.66.16-6.92-.13a94.51,94.51,0,0,0-12.71-.9l-5.39-.23c-2.28-.18-5.13-.27-7.7-.4h-.17l-.16,0v0c-2.88-.17-5.84-.32-8.85-.46a.81.81,0,0,0-.05-.24.75.75,0,0,1-.25.23l-2.58-.12a1,1,0,0,0,.44-.28c.23-.27.78-.46.24-.77a.74.74,0,0,0-1,.22c-.3.3-.6.53-1.09.13a5.13,5.13,0,0,0-2.59,0c-1,.39-1.27-.1-1.37-.64-.25.13-.6.24-.72.41a1.63,1.63,0,0,0-.32.68l-.63,0,.07-.18c-1.73-.43-2.65-.44-3,.08l-2.45-.08h0c-3.07-.15-6.43-.23-9.76-.31h0c-4.2-.17-8.77-.21-13.17-.31h0c-.59,0-1.15-.06-1.77-.07l-1.63,0a2,2,0,0,0,.9-.92c-1.43-.56-1.26.25-1.26.92-7.32-.11-14.65-.22-22-.3h0c-2.29-.08-4.71-.1-7.11-.12.13-.14.22-.26.24-.28.2-.48.1-.55-.16-.34a6.8,6.8,0,0,0-.56.55l.13.07-2.18,0a1.48,1.48,0,0,0,.65-1.85c-.23.56-1.32.81-1,1.84h-.8a3.9,3.9,0,0,0-1.55-1.77,1.33,1.33,0,0,0,.33-.35c.3-.46,1-.79.31-1.32s-.94,0-1.23.37-.76.9-1.39.22c-1.1-.15-2.13-.6-3.31,0s-1.63-.18-1.75-1.09c-.32.23-.77.4-.93.69-.45.83-.81,1.92.37,2.34.86.31,2.5,1,2.73-.94.05-.46.94-.8,1.2.11.1.33.26.94.46.73.57-.62,1.45-.44,2.24-.48a3.24,3.24,0,0,1-.06,1.58l-1.55,0,0,0-.25,0c-.94,0-1.9,0-2.85,0H345a1,1,0,0,0-1.19,0h-.93a2.3,2.3,0,0,0-1-1.56l-.08,0,.26-.88c-1.56-.52-2.6-.68-3.25-.43a4.91,4.91,0,0,0-1.37-.3c-.56.81,0,1.09.58,1.37A4.89,4.89,0,0,0,338,5.08a5.59,5.59,0,0,0-3.29.41h-.13c1.5-1.85,1.47-1.89-.68-3-.68.48,1.54,1.91-.86,1.88-.42,0-.34.52-.05.85l.22.27h-1.89c-.93-.06-2,0-3,0h-1.9c-.93,0-1.92-.07-3,0h0c-.52,0-.72.09-1.53.09-3.57,0-7.2,0-10.66-.08h0a14.32,14.32,0,0,0-1.49-.05c-1.3,0-2.52,0-3.69,0l-.59,0-2.08.09h0c-2-.12-4.29-.19-6.75-.18h0c-4.32-.1-8.78-.07-13.16-.13a5.05,5.05,0,0,0-1.28.06,5,5,0,0,0,1.26.07l.48.09c-4.53,0-9.07.08-13.64,0-.5-.05-1.2-.08-1.93-.08-5.87,0-11.68-.12-17.58-.1-.29,0-.59,0-.86,0-2,0-4,0-5.93,0l-.56-.82a3.37,3.37,0,0,0-1.08.83l-7.16,0c-2.33,0-4.64.05-7,.08a3.29,3.29,0,0,0-1,.07,6,6,0,0,0,1.16.06c1.69,0,3.38,0,5.06,0,2.55,0,5.07.12,7.62,0h1.18a.59.59,0,0,0,0,.22c-2.8,0-5.28.1-6,.2l6.12,0a.91.91,0,0,0,.08.14l0,0-7.37,0a8.88,8.88,0,0,0-2.49.16,12.9,12.9,0,0,0,2.78.1c4.11-.07,8.25,0,12.37,0l1,0c2.46,0,4.95,0,7.42,0a2.42,2.42,0,0,0,.92-.08,5.38,5.38,0,0,0-.92,0h0c.23-.07,1.07-.15-.53-.17H243.76l.41-.19c2.53,0,5.06,0,7.66-.08-1.35-.08-4.39-.1-7.45-.08l-.09-.13,1.62,0c3.22.09,6.53,0,9.8,0a21.65,21.65,0,0,1,4,.2,15.69,15.69,0,0,0,2.59.13c1.67,0,3.34,0,5,0,2.22,0,3.45-.07,3.57-.28h0c4.4,0,8.81,0,13.15.06-1.19.08-2.53,0-3.76.07-.48,0-1,0-.94.08a4.45,4.45,0,0,0,.93.05,55.76,55.76,0,0,0,6.58-.14,15.44,15.44,0,0,0,4.27.24,56.42,56.42,0,0,1,6.84.16,42.44,42.44,0,0,0,5,0c1.45,0,2-.1,1.73-.24A6.62,6.62,0,0,1,306.19,6c4.47,0,8.87.08,13.34.05.66,0,1.31.07,2,.08,4.11,0,8.2.06,12.3.09l.2.25c-1.12,0-2.26,0-3.37,0-3.66-.11-7.34-.28-11.4-.13-.54,0-1.63-.07-1.59.06a6.12,6.12,0,0,0,1.88.13l8.24,0c1.09.07,2.3,0,3.49,0h0c.93,0,1.91,0,2.9,0l.17.21.33-.21c1.19,0,2.38,0,3.53,0h.33a4.45,4.45,0,0,1,.48.53,8,8,0,0,0-2.4-.05h-5.2c-.77-.05-1.68,0-2.54,0h0a13.08,13.08,0,0,0-1.83,0c-.21,0,.34.05.72.06,1.45.07,3,0,4.51,0h.95a31.4,31.4,0,0,0,4,.09h2a1.24,1.24,0,0,0,.55.35c-6.94-.15-14-.23-21.05-.31a71.85,71.85,0,0,0-17.46-.27l0,.07h0l.06-.07c-.66-.61-1.53-.45-2.35-.46L291,6.59H289.7l-18.4.1h0a10.9,10.9,0,0,0-2.42,0h-.25c-5.29-.1-10.29.15-15.54.11-.27,0-.59,0-.89.07h-1.83c-5.06-.24-10.41-.29-15.69-.11-2.79.1-5.49.11-8.3.1l-7.27,0-.5,0a21.78,21.78,0,0,0-2.34-.09h-4a1.5,1.5,0,0,0-.78,0H204.9l0,0a2,2,0,0,0-.32,0h-4.88c-1.84,0-3.69,0-5.55,0a1.23,1.23,0,0,0-.77-.41c-2.74.2-5.57-.2-8.25.41l-15.62.08A10.24,10.24,0,0,1,167,6.63h0l3-.08c1.2,0,1.83-.12.87-.24h0l-1-.08c-.3-.06-.13-.08.64-.09,1.41,0,3,0,4.22-.09h0c2.55-.08,5.31,0,7.84-.12h0c3.14,0,6.24-.07,9.42,0,2,0,4,0,5.88,0a11.81,11.81,0,0,1,1.62.21c1.91.64,2.74.6,3.15-.35h.31c3.23.14,6.35,0,9.51,0a4.32,4.32,0,0,0,1.33-.1h0c1.81-.15,4.66,0,6.71-.21l-1.07,0c-2.87-.06-5.79-.09-8.71-.12.24-.08.52-.51.37-.73-.76-1.11-1.08-2.61-3-2.78.11,1.24.6,2.58-1.27,3.25,1.19.56,2.53-.86,3.75.24l.05,0-3.17,0c-1.4,0-3.06,0-4.63,0a9.2,9.2,0,0,0,.2-1.33c-.8-.53-1.31-.07-1.82.41a1.48,1.48,0,0,1-.28,0,1.36,1.36,0,0,0-.06-.22,2.14,2.14,0,0,0-1-1.84c-.61-.24-1.43.07-1.9-.54A3.69,3.69,0,0,0,195.38.68c-1.07,1.55,1.9,1.16,1.52,2.52-1.33.16-2.76-.5-4.51.53,1.6-2,1.6-2-.59-3.12-.68.48,1.54,1.91-.86,1.88-.42,0-.34.52-.05.85.42.48.8,1,1.31,1.63,1.77-1.28,3.4-1.33,4.73.43l0,0c-3.6,0-7.27,0-10.78.13-.41,0-1,0-1.4,0-1.67-.09-3.42-.07-5.19,0l-5.52.07c-4.87.05-9.81.06-14.59.17h0c-3.74,0-7.39,0-11.06.09-8.37.11-16.64.28-24.9.45-.8,0-1.64,0-2.4,0-11.86.33-23.77.64-35.13,1.1-5.16.21-10.49.39-15.21.68h0c-4.64.14-8.77.35-12.53.64a16.76,16.76,0,0,0-3,.35l-1.12.12h0a70.77,70.77,0,0,0-11.33.45h0c-1.47.1-2.11.27-3.27.39s-2.47.27-3.26.43c-1,.2-2.94.39-2.15.64h0c-3.91.18-5.38.54-3.72.89.18,0,.18.08.26.13h0c-.94,0-1.77.07-2.76,0v.13a13.42,13.42,0,0,1,1.35.09,3.76,3.76,0,0,1,.59.17c.23.15,1.67.29,1.23.44s-.23.26.66.37c-.38.07-1.39.15,0,.22h0c3.24.25,3.34.34.59.52-1.72.13-1.17.27-.09.41h0c.2.14-.12.3,1.54.39h0l.47,0h0s0,.06-.13.06c-3.27.16-4,.34-2.79.7h0a21.5,21.5,0,0,0,2.35.31h0c.17.08,1.45.15-.2.24-2.12.1-2.3.3-.67.51h0l.28,0-.28,0c.62.11-1,.13-1.19.2a8.83,8.83,0,0,0,1.27.06c.56,0,1.15,0,1.66,0,1.23,0,1,.1-.89.22h-1.7a14.7,14.7,0,0,0-2.29.07c-.28.09.84.12,1.48.15,1.44.08,1.33.17.19.26-3,.21-3,.24-.15.41a3.23,3.23,0,0,1,.47.07c-.64.19-1.82.37-.8.58a.62.62,0,0,1,.24,0l-.24,0c-.23.08.21.15.63.22.84.15,1.81.3.75.48a7.62,7.62,0,0,0-1.37.09c-.82.15-1.69.29.16.43s1.53.25-.09.37a5.62,5.62,0,0,0-1.12,0,6.66,6.66,0,0,0,1.6.1h0c3,.17,3.21.21,1.82.4h0c-.48,0-1,0-1.42,0-.9,0-2.62-.05-2.68.06a20.27,20.27,0,0,0,2.72.11c.12,0,.74.09.13.11-1.65.06-.84.12-.1.18l1.42.11c0,.21,1.61.27,3.42.31h0a12.35,12.35,0,0,1,1.49.26c.35.07.64.14.46.22a1.25,1.25,0,0,0-.35.06.42.42,0,0,1,0-.08c-1.64.43-.63.9-.6,1.73.87-.08.63-.66.55-1.18a2.13,2.13,0,0,0,.43,0c.17,0,.32,0,.52,0a4.4,4.4,0,0,0-.45,0,3.41,3.41,0,0,0-.49,0h0a.86.86,0,0,1,0-.43,3.28,3.28,0,0,0,1.07.12c2.46.1,2.1.26,1.32.44h0c-.33.06-1.29,0-1.59.07h0c-1,.11-.93.22,0,.33.57.13,0,.3,1.42.41h0l.91.08h0s0,0,0,0c-3.43.19-4.26.41-2.78.75h0l.38,0h0a13.1,13.1,0,0,0,1.51.17h0c-.15.09,1.95.15.33.26-1.86.12-2.33.26-1.52.43a4.47,4.47,0,0,1-.66,0,1.31,1.31,0,0,0-.88.18l0,0a.08.08,0,0,1,0,0c0,.12.36.22.61.24a15.87,15.87,0,0,0,1.82,0,7.16,7.16,0,0,1,1-.05,1.49,1.49,0,0,0,.43-.05,2.32,2.32,0,0,1,.81.07,12,12,0,0,1-2.52.16h-.72a14.92,14.92,0,0,0-2.3.07c-.3.09.75.12,1.4.15,1.4.07,1.55.15.34.25l-.83,0c-2,.2-2,.2.34.36.5,0,.5.07.49.11A6.11,6.11,0,0,0,37.25,27a2,2,0,0,1,.44.55.11.11,0,0,0,0,.09,1.22,1.22,0,0,1,.1.86l-.16,0a4.55,4.55,0,0,0-1.2,0c-1.21.57.22.57,1.07.52a1.78,1.78,0,0,1-.34.27l-.13,0s0,0,0,0a2.9,2.9,0,0,1-.8.3,13.26,13.26,0,0,1-7.6-1.81c-4.61.56-.57,4-.16,5.54-2.13.43-5.3.39-6.21,1.35-3.51-1.68-7-.4-11-1.26a1,1,0,0,1-.47,1.32c-4.55.08-7.05-.88-10.88.32,1.68,1.47,6.61,1.37,10.46,1.79.25,1-.58,1.61-1.57,2.12,1.42.27,9.18-.76,8.15,1.54-1,.68-4,.47-4.49,1.34.87,1.41,6.59.47,7.59,1.81,3.35-.59,6.77-.12,7.56,1.28-.18.35-1,.42-1.08.8a21.41,21.41,0,0,0-12.48,1.91l.32.39-.85.14a4.54,4.54,0,0,0,2.94,1c-2.81,1.12-4.2,3.53-.78,4.76C16,55.57,11.64,55.1,12,56.68c-1.8-.32-4.51-.19-4.69-1.29-2,.68-.36,1.57.2,2.64-.66.74-2.28.89-4,.55.19.85-.93,1.12-.41,2.12,2.84-.28,2.87.8,5.22.76l.56-.13.59.13c-.33.24,4.84-.6,4.49-1.34-.21-.44,2.18.29,1.06-1.06,1.18.27,2,1.38,2.29,0,1.05.55,2,.44,1.25,1.31,3.31-.83,5.43.73,8,.55.17.32.36.67.59,1.07h0c.07.7.25,1.34,1.06,1.56l3.51,1.9h0a2.57,2.57,0,0,0,2.79,1.66h0q1.74.4,3.48.83-1.76.39-3.53.75h0a1.85,1.85,0,0,0-2,1h0L30,70.85a.94.94,0,0,0-.75,1h0C27.93,73.91,28,74,30.46,74.05c1.68.06,3.36-.18,5-.23a3.55,3.55,0,0,0-.43.13,9.81,9.81,0,0,1-3.42.34s-.09.08-.13.25a.49.49,0,0,0,.17.47,11.14,11.14,0,0,0,4.41.69,1.91,1.91,0,0,0,.9-.6c-.1.42-.69.48-.83.85-.67.45-2.08.44-1.79,1.49a1,1,0,0,0,.79.64l-9.07,0c-2.81.76-2.82.76-2.69,3.38,0,.53.12,1.06.18,1.59a.62.62,0,0,0,.45.43c-.79,1.38.74,1.09,1.56,1.16.52,0,1,.08,1.55.11a12.57,12.57,0,0,0-3.48.39c-.83.84-.43,1.44.5,1.95,4.23.08,8.44,0,12.67-.11a5.43,5.43,0,0,0,1.61.12.21.21,0,0,0,0-.17l.89,0q9-.34,18-.49h0l.34,0h.09l.11,0,1.38,0L56.49,87h0a1.85,1.85,0,0,0-2,1h0l-1.77.83-.41,0c-3.94-.15-7.69-.32-11.48-.8a1.43,1.43,0,0,0-.86.11c-.15.1-.08,0-.06.11s.16.17.43.2c3.75.47,7.61.66,11.46.81a1,1,0,0,0-.53.87h0a7.92,7.92,0,0,0-.81,1.43H49L49,92h1.5c.21.24.81.28,2,.32,2.58.09,5.14-.53,7.71-.08h3.6c-.53.08-1.07.17-1.6.28-1.06,0-2.11,0-3.17,0-7.33-.18-14.67,0-22-.25-.41,0-.83.24-1.35.89l8.92,1.11q0,.32,0,.64H33.87c-3.66.63-7.29-.23-10.95-.11-3.48.12-3.59.21-1.66,3.12h0a1.31,1.31,0,0,0,1.06,1.33l3.51,1.62h0a2.64,2.64,0,0,0,2.79,1.42h0a141,141,0,0,1,14.59,3.5s0,0,0,0,.29.12.56.12L44,106a4.56,4.56,0,0,0,.41.31l-1.8.37h0a1.85,1.85,0,0,0-2,1h0l-2.47,1.17a.94.94,0,0,0-.75,1h0c-1.36,2.1-1.28,2.16,1.17,2.24a25.07,25.07,0,0,0,2.7-.09l-2.31.48h0a1.8,1.8,0,0,0-1.57.5l-.2-.06.18.08a2.5,2.5,0,0,0-.37.5h0l-2.47,1.17a.94.94,0,0,0-.75,1h0c-1.36,2.1-1.28,2.16,1.17,2.24s5.14-.53,7.71-.08h7.54q0,.23,0,.46l-6.28.8c.37.46.66.65.95.64,4.93-.18,9.87-.07,14.81-.17q-1.76.39-3.54.75h0a1.85,1.85,0,0,0-2,1h0l-2.47,1.17a.94.94,0,0,0-.75,1h0c-1.36,2.1-1.28,2.16,1.17,2.24s5.14-.53,7.71-.08h7.54q0,.23,0,.46l-6.28.8c.37.46.66.65.95.64,5.16-.18,10.32-.05,15.49-.18,7.58-.19,15.17,0,22.75-.06a5.7,5.7,0,0,0,3-.42c-6.46-.38-12.53.36-18.45-.86a1,1,0,0,0-.56.18c-1.22.7-2.39,1.06-3.43-.22a5.93,5.93,0,0,1-3.76.79c-.21,0-.46,0-.62-.06a5.44,5.44,0,0,0-5.17-.15c-.76.34-2.53.34-1.94-1.39h0l2.52,0h40.73c.83,0,1.71.13,2.34-.52h1.25c.35.17.7.47,1.06.47H118c0,.3.08.61.12.91a.62.62,0,0,0,.45.43c-.38.66-.22.93.13,1l-7,.19c2.39,0,4.75-.09,7.12-.15a11.51,11.51,0,0,0,1.31.08c.52,0,1,.08,1.55.11a12.57,12.57,0,0,0-3.48.39c-.68.69-.52,1.22.07,1.66l-2.57.08c.88,0,1.75,0,2.6-.05a3.52,3.52,0,0,0,.41.26c1.94,0,3.88,0,5.82,0,.51.2,1.16.33,1.7.52,0-.25.19-.38.37-.53l1.11,0c-.08.46-1.66.83-2.58,1.06l-.28.37-.28.37c2.28.22,2.94.08,4.84.72.17-1.3.83.11,3.81-.51l-.26-.37.82-.12c.79-.36.44-.79-1.06-.73-.05-.43.63-.52.58-.95l.56,0c8.52-.32,17.06-.54,25.57-.56l9.63,0,0,.94c2.78.95,4.39.32,8.14-.52,2,1.41,7.38,1.14,7.06-.49l10.86-.05c1.09.67,3.77.34,6.2.06a.83.83,0,0,0,.6.53c.33,0,.6-.13.66-.4a.52.52,0,0,0,0-.21h6.63a.47.47,0,0,0-.06.22l.8.29-.28.46c1.85.4,2.4,0,4.86.23l-.25-.55.83-.43V129H218l-1.28.18.25.45-.82.29c-.43.76,1.47.46,1,1.23,1.52-.47,5,0,5.45-1,.12.35.74.65,2.69.74-1.42-1.06,1.38-.82,1.68-1.73a2.56,2.56,0,0,1-1.09-.11q11.64.09,23.28.37c3.89.1,7.78.14,11.66.16a2.7,2.7,0,0,0,.67.49c5.05.1,10.09,0,15.14-.19q5.15-.19,10.32-.33h9.86a6.63,6.63,0,0,0,1.77.76c.8.25,1.13-.29,1.54-.75H302l-.13.25h0l-.19.42a5.91,5.91,0,0,0,1.49-.34,32.61,32.61,0,0,0,6.87-.32l4.93,0c-.16.1-.37.18-.36.36-.2.29,1.29-.28,2.57-.36h.51a1.43,1.43,0,0,1,.93.33l.68-.33c9,0,17.94,0,26.91-.05a1.75,1.75,0,0,0,.54.12,27.71,27.71,0,0,0,4.33-.11l.9-.08,2.39,0a3.93,3.93,0,0,0,.65,0,15.11,15.11,0,0,0,2.18-.08l2.11,0h1.26l18.4-.1h0a10.84,10.84,0,0,0,2.39,0q5.31.09,10.62.22c5,.13,10,.16,15,.17a8.36,8.36,0,0,0-1.12.47l.95,1.37c.69-.41,1.59-.89,1-1.64a.6.6,0,0,0-.29-.21c7.56,0,15.12,0,22.68,0q8.89,0,17.78,0c-.43.36-.6,1.12-.71,2.36.8.53,1.31.07,1.82-.41a1.48,1.48,0,0,1,.28,0,1.35,1.35,0,0,0,.06.22,2.14,2.14,0,0,0,1,1.84h0c.61.24,1.43-.07,1.9.54a3.69,3.69,0,0,0,2.53,1.08c1.07-1.55-1.9-1.16-1.52-2.52,1.33-.16,2.76.5,4.51-.53-1.6,2-1.6,2,.59,3.12.68-.48-1.54-1.91.86-1.88.42,0,.34-.52.05-.85-.42-.48-.8-1-1.31-1.63-1.77,1.28-3.4,1.33-4.73-.43-.58-.77-1.69-.43-2.53-.71l-.52-.17,6.43,0a.52.52,0,0,0,.2,0l.69,0c13.21,0,26.42.06,39.63-.13a10.52,10.52,0,0,0,4-.42,4.76,4.76,0,0,1,2.74-.31.17.17,0,0,0,.06.14c.24.25.68.26,1.24.22a18.54,18.54,0,0,1,3.24.11,27.13,27.13,0,0,0,4.33.11c.36,0,.73-.15.74-.31s.13,0-.05-.14a.68.68,0,0,0-.23-.12,48.47,48.47,0,0,0,5-.26h1.38c.24,0,.48.08.72.14a2.18,2.18,0,0,0,1.17-.15c3.77,0,7.55-.06,11.32-.06h6.9a1.45,1.45,0,0,0-.52.33q.8.42,1.66.82c1-1,4.3.45,4,0,0-.27-.44-.32-.53-.54h2.29l.77-.35,1-.18-.27-.09h2.87l1.55.06a.87.87,0,0,0,.8,0l1.91,0c3.15,0,6.25,1.17,9.38.63,5-.87,10.05-.37,15.08-.49a19.4,19.4,0,0,0,2.63-.1l20.07,0c4.06,0,8.13-.05,12.19-.06a29,29,0,0,0,3.22.23.31.31,0,0,1,.15-.22c2.4,0,4.8.06,7.2.16l5.69-.2h0c.95,0,1.89.09,2.84.09H634a2.06,2.06,0,0,1-1.32.22c.29.93,3.1.69,1.68,1.77,1.95-.09,2.56-.39,2.69-.75.44,1,3.93.55,5.45,1-.43-.78,1.47-.48,1-1.25l-.82-.3L643,129l-1.75-.26h3.37V129l.83.44-.25.56c2.46-.23,3,.18,4.86-.23l-.28-.46.8-.29a.5.5,0,0,0-.07-.29h7.14l0,.06c2.64.3,5.85.8,7,0a1.05,1.05,0,0,0-.23-.08h11.85l-.78.12c-.4,1.69,5.06,2,7.06.53,3.75.86,5.36,1.5,8.14.53l0-1a1.78,1.78,0,0,1-.68-.17h1.22c1.47,0,2.94.08,4.41.13a.87.87,0,0,0,.8,0l1.91,0c3.15,0,6.25,1.17,9.38.63,5-.87,10.05-.37,15.08-.49,1.55,0,3.2.2,4.46-.91A94.15,94.15,0,0,1,738,125.33h0a1.85,1.85,0,0,0,2-1h0l.16-.08,4.23.14c7.18.26,14.34.41,21.51.27,1.32-.7,1.9-1.54.72-2.71a18.21,18.21,0,0,0-4.94-.54c.73,0,1.47-.09,2.2-.15,1.17-.1,3.34.31,2.22-1.62a1,1,0,0,0,.24-.13c10.73.41,21,.7,23.65,1.4.26.07.45.93,1.1.25-1.34-.4,2.58-.45,2.12-1.26-2.12.31-1.43-.69-2.19-1-1.42.63-3.67-.08-4.33,0-.31,0-.43.51-1.06.5-1.29,0-3.58-.19-4.89-.27-2.86-.17-9.25-.54-12.77-1l2.6-.54h0a2.63,2.63,0,0,0,2.79-1.45h0l3.51-1.66a1.33,1.33,0,0,0,1.06-1.36h0a14,14,0,0,0,1.12-1.92,4.64,4.64,0,0,0,1.42.11c0,.36-2.26.78,0,.75,1.12-.14,1.14-.39.52-.75,1.3.11,1.16-.46,2.7-.25,0-.68-.92-.51,0-1-1-.64-5.23.24-5.44-.77,1.63-1.27,6.54,0,8.63-1,.14.45-.51,1.26,1.12,1,1.6-1.25,1.71-2.36,4.25-2.51,2.73-.15.63.83,2.17,0,.48-.26,2.05-.09,2.63-.27,4.1-.05,8.2.13,12.3,0,.6,0,1.22,0,1.83,0l0,.05.12-.05h.3l.13.06s0,0,0-.06a5.89,5.89,0,0,0,3.91-1.28l.26-.08c.28,0,.55,0,.56-.12s0,0,0,0a138.59,138.59,0,0,1,14.59-3.58h0a2.63,2.63,0,0,0,2.79-1.45h0l3.51-1.66A1.33,1.33,0,0,0,838.44,97h0c1.93-3,1.82-3.06-1.66-3.18-3.64-.13-7.25.74-10.88.12.34,0,.61-.07.24-.13-1,0-1.56.11-2.61.08-2.3-.06-2.72-.06-2.62,0h-3.15a8.44,8.44,0,0,1-1-.18h0a9.8,9.8,0,0,1,2.51-.13c1.12,0,2.21,0,2.91-.08v.26c1.46.18,1-.52,1.6-.75h-1.62v.27a5.23,5.23,0,0,0-.94.06,12,12,0,0,1-2.72,0l1.51-.1h0q.1,0,0,0h0c.37-.09,1.51-.16.47-.27L820,93l.14-.17h5.12a5.51,5.51,0,0,0,1.43-.08,5.92,5.92,0,0,0-1.3-.06,12.51,12.51,0,0,1-2.19-.12h2.39c.58,0,1.44,0,.79-.1h0a9.11,9.11,0,0,1-1.15-.12h5c2,.08,3.93,0,5.88,0,1.45,0,2.51,0,2.48-.16,0,0,1.14,0,.64-.1A8.79,8.79,0,0,0,838,92c-3.41.11-6.43-.07-9.63-.1h0a17.92,17.92,0,0,0-1.81,0c-1,0-1.85,0-2.71,0a1.53,1.53,0,0,0-1.12-.64c-3.62.13-7.25.15-10.87.16-.64-.11-2.23,0-3-.14a13.89,13.89,0,0,0-2.84,0c-.44,0-1,0-1.56,0l-1.85-.2c3,0,6.08,0,9.1,0h0c1.58.09,3.3,0,5,0l4,.07c1.74,0,3.51,0,5.26,0a14.86,14.86,0,0,0,1.71,0c.26,0,.12-.05-.2-.07-.55-.06-1.28,0-2,0h0c-1.54,0-3.14-.05-4.75-.05-1.12-.06-2.34,0-3.54,0h-.43s-.06,0-.16,0h0c-1.78-.11-3.82-.1-5.81-.12v-.1h1.53l1.69,0a22,22,0,0,0,3.46-.09h0a24.21,24.21,0,0,0-3.2-.1c-1.13,0-2.3,0-3.47,0V90.5H809v.08c-1.24,0-2.46,0-3.59-.09,2.16-.11,4.46,0,6.68,0a13.06,13.06,0,0,0,2.64-.14h0a6.16,6.16,0,0,0,1.12-.06,4,4,0,0,0-1.16-.08c-.66-.11-3-.16-1.46-.34h0c1.62.13,3.67.11,5.59.13a14,14,0,0,0,2.31-.07c.37-.1-.72-.11-1.39-.15-.35,0-.75,0-.55-.08a4.07,4.07,0,0,1,.8,0,10.85,10.85,0,0,0,3.44-.2h1.91c1.94,0,3.79,0,5.64.07a9.69,9.69,0,0,0,1.47,0c.17,0-.05-.06-.38-.07l-3.81-.09a15.35,15.35,0,0,1-2.69-.12c-.51-.1.63-.16,1.18-.19,1.54-.1,1.67-.14-.33-.19s-3.94-.08-6-.08h-.37c-1.38-.07-3.13,0-4.45-.1-.19-.07,0-.12.89-.11a44.67,44.67,0,0,0,4.86-.18c1.74.09,3.55.09,5.4,0,.35,0,.89,0,.69.07s-.36.12.7.11c.82,0,1.31-.07,1.08-.14a9,9,0,0,0-2-.13c-1.85-.1-.08-.12.46-.17h0c.5,0,1.47,0,1.26-.07-.57-.14-.25-.35-2.92-.35-1.3,0-2.44-.06-3.56-.12a1.72,1.72,0,0,1-.35-.06l.35.06c-.27-.12.31-.15,1.47-.12a7.61,7.61,0,0,0,1.43,0c.17-.09-.78-.09-1.48-.09h0c-.41-.06-.28-.09.46-.11s1.47,0,2-.05h0l2.66-.11c-.53-.1-2.33-.11-1.56-.24a13.59,13.59,0,0,1,2,0c2.6.16,1.7-.09,2.1-.16s-.53-.13-.31-.21c1.59-.2,1.08-.28-2-.31V86l1,0h0c.84,0,1.78,0,2.52,0,1.19-.12-.05-.16-.93-.2l-3.52-.13h0s0-.1.61-.1c1.58,0,3.12-.06,4.7,0,.91.14,2.63,0,3.74.11a12.73,12.73,0,0,0,2.77,0c.77-.12.45-.39-.64-.43-2.07-.08-4.08-.17-6.32-.21-4.22-.08-7.46-.37-11.68-.45h0a24,24,0,0,0-2.92-.3h0a14.3,14.3,0,0,0-2-.22c-.25-.18,1.23-.07,1.88-.09h.14v.31h1.08v-.36l.07,0s0,0-.07,0v-.08h-1.08v.06h-.09a22.64,22.64,0,0,1-2.66-.13c1.64,0,3.22,0,4.37,0v0h.53a4.62,4.62,0,0,1,.54.09,7.81,7.81,0,0,0,1.45,0c.72,0,1.23-.08.62-.15h0a8.29,8.29,0,0,1,1.06-.05,7.19,7.19,0,0,1,2.11.28,4,4,0,0,0,1.31.09,21.28,21.28,0,0,0,2.85-.16,5,5,0,0,0-1.63-.14c-1.42,0-2.57-.08-3.6-.16t-.1,0a7.71,7.71,0,0,1,1,0h0c2.09,0,4.09,0,6,.12l.27,0-1.38-.16h0c-.11,0-.34-.08.38-.1s1-.07.09-.12h-1.95c-2.37,0-4.54-.06-6.79-.1h0c-1-.08-2.55-.07-3.43-.17-2-.17-4.5-.25-6.86-.35h0a.26.26,0,0,0-.07-.22q3.16,0,6.39.05a8.36,8.36,0,0,0,1.41,0c.23,0,0-.05-.3-.06h0c-.87-.06-1.89,0-2.87,0s-2.35,0-3.56,0h-.35l-.87,0c-.52-.33-1.81-.46-2,0a2.47,2.47,0,0,1,.83,0H809.8c-.48-.1-1.79-.06-2.53-.11a20.51,20.51,0,0,0-2.37-.06h0l.19-.05c.89,0,1.85,0,2.77,0h0a10.23,10.23,0,0,0,2.29-.1,9.35,9.35,0,0,0-2-.11l-2.73,0a.18.18,0,0,0-.06-.16,20.82,20.82,0,0,0,2.51-.13,6.12,6.12,0,0,0,1.26-.06,4,4,0,0,0-1.27-.09h0l-1.45-.09c-.27-.08-1.59-.15-.44-.26h0c1.71.13,3.79.12,5.8.13a14.82,14.82,0,0,0,2.13-.06c.47-.1-.53-.12-1.22-.15-.42,0-1,0-.64-.1a7,7,0,0,1,1.06,0,10.11,10.11,0,0,0,2.59-.11h0a31.87,31.87,0,0,1,3.85-.1c1.9,0,3.75.16,5.85,0-1-.15-3.13-.07-3.87-.23a1.15,1.15,0,0,0-.52.1,18,18,0,0,1-2.45-.17h0a6.89,6.89,0,0,1,.81-.16c1.5-.17,1.42-.19-1-.24h-2.12c-1.1-.06-2.32,0-3.5,0h0c-1.05-.07-2.3,0-3.42,0h0l-.83,0h0c-.57-.13.47-.12,1.36-.13a21.38,21.38,0,0,0,3.34-.13l1,0c1.74.08,3.53.09,5.39,0,.33,0,.87,0,.73.06s-.58.1.32.12a8.49,8.49,0,0,0,1.4-.06c1.11-.2-.74-.19-2-.22-1.83-.1-.14-.12.48-.16l1.08,0h0c-.05-.15.26-.32-2-.36-1.55,0-2.86-.08-4.23-.14-.15-.1.37-.13,1.42-.11a7.13,7.13,0,0,0,1.55,0,6.35,6.35,0,0,0-1.64-.09c-.17-.08.4-.1,1.08-.1a16.48,16.48,0,0,0,1.82-.07l2.28-.08c-.21-.11-2-.11-1.69-.23a11,11,0,0,1,1.84,0c1.87.15,1.87.15,2.46-.09h0l-.36-.26h0c1.19-.09,1.44-.19-.12-.27l-.06,0-1-.11h0l1.14,0a8.53,8.53,0,0,0,2.05-.1,7.86,7.86,0,0,0-2.16-.13L822,76.83c-.36-.05-1.9-.12.21-.14,1.73,0,3.45-.07,5.12,0,.89.06,2.09,0,3,.06a12.41,12.41,0,0,0,2.63,0c.75-.11.54-.41-.44-.44-2.22-.07-4.23-.19-6.62-.21-2.7-.07-5.17-.18-7.46-.32-.39,0-.88,0-1.33-.05a37.91,37.91,0,0,1-3.88-.2h0a8,8,0,0,0-1.86-.17h0a25.28,25.28,0,0,0-2.82-.31c.11-.17.3-.35.43-.52l.73,0c1.39.12,2.85.23,4.13.36a11.12,11.12,0,0,0,1.82.06c.85,0,1-.09.36-.16s-.11-.08.58-.09h0l1.83.09h0l1.06.24a4.15,4.15,0,0,0,1.21.07,23.13,23.13,0,0,0,2.71-.15c.16-.07-.58-.11-1.33-.13l-3-.09-.58-.07c.72-.06,1.92,0,2.45-.13h0c1.32.06,2.53.15,4.55.15-1.49-.18-3.36-.24-5.07-.32L812.24,74c-1.6-.12-3.47-.2-5.33-.29,1.79-.55,3.41-1.21,2.61-2.33a11.09,11.09,0,0,1-1.77-.14,4.56,4.56,0,0,0,2-1.22l1.64-.6a9.15,9.15,0,0,0,4-.54l-.81-.13,0-.06,1.21-.37c-.31.09-.61.16-1.2.37l.21-.31-.17,0c3.46-1.08,7-2,10.5-2.79h0A2.56,2.56,0,0,0,828,63.88h0l3.51-1.94c.81-.23,1-.87,1.06-1.59h0c.23-.41.42-.77.59-1.09,2.6.18,4.72-1.42,8-.57-.77-.89.2-.78,1.25-1.34.25,1.42,1.11.28,2.29,0-1.12,1.37,1.27.64,1.06,1.08-.35.76,4.82,1.62,4.49,1.37l.43-.1-.74.44c.62,0,.75-.23.87-.47h0l.56.14c2.35,0,2.37-1.06,5.22-.78C857.14,58,856,57.75,856.21,56.88Zm-13-14.81-2.6,0C841.45,42,842.34,42,843.17,42.07Zm-23.38-18h0ZM255.7,6.14h0Zm14.59-.4h0Zm35-.33h0Zm2,.25h0ZM193.7,5.87h0ZM174.88,5.7h0Zm-7.14.45h0ZM32.21,14.53h0Zm.1,3.71h0Zm2.44,1.1h.47l.05,0ZM36.18,21h0Zm2-9.45h0ZM36.7,21.44h0Zm0-1.11h0Zm2-2.26h0ZM32.09,84.88c-.86,0-1.72,0-2.58,0,1.25,0,2.49,0,3.72,0Zm798.14,7.43-2.6,0C828.51,92.26,829.39,92.27,830.23,92.31Zm-13.31-1.57h0Zm-7.86,0v.06c-.29,0-.71,0-.69-.06Zm9.08-1.51s0,0,.05,0h-.05Zm11.63-3.39h0S829.76,85.9,829.77,85.89Zm-5.84,1.44h0Zm-12.69-8.11h0Zm-12.07,2.17H799C798.91,81.37,799.17,81.38,799.16,81.39ZM802.89,83h0ZM341.3,7.94a2.09,2.09,0,0,1,.25,0l.75.23h-1.09L341,7.94ZM337.44,6,336,6A2.59,2.59,0,0,1,337.44,6Zm7.38,1.32c1.6,0,3.2.05,4.8.06h.87a2.83,2.83,0,0,1,1.24.83h-3.17a1.85,1.85,0,0,0-.43-.18,5.48,5.48,0,0,0-3.38-.25h-.12A2.36,2.36,0,0,0,344.82,7.36Zm38.09-.59c.57,0,1.23.05,1.87,0l-.16.15a31,31,0,0,0-3.59.09,16.27,16.27,0,0,1-3.24,0,7.2,7.2,0,0,0-1.68.07c-.31,0-.85,0-.89,0a25.78,25.78,0,0,0-4.41-.23l-3.09-.05c-3,0-6-.11-9.14-.07-1.45,0-1.19.07-.12.12h0l.51,0c.72.06,1.64,0,2.47,0h0a30.59,30.59,0,0,0,3.41.09h0c1.92.12,4.28.07,6.32.14h0c2.53.11,5.39.07,8,.14,1.68,0,3.4.07,5.1.1a.66.66,0,0,0,.08.33l-3.29-.07c-2.62,0-5.35,0-7.86-.11a16.24,16.24,0,0,0-3.52,0,20.29,20.29,0,0,1-3.7-.27s-1,0-1.56,0c-.87,0-1.83,0-2.62,0-1.56-.06-3.16-.05-4.77,0-.32-.53-.54-.53-1.08,0H354.1a2,2,0,0,0-.69-.75h.27l4.59,0c5.67,0,11.11.2,16.8.2,1.59.06,3.28,0,4.93,0h.39C381.16,6.78,382.06,6.76,382.91,6.77ZM346.66,8.28h0Zm13-.31-.93,0h-.76l-.38-.15c.84,0,1.65,0,2.37.08A.6.6,0,0,0,359.63,8Zm.38-.11h.05l.06,0Zm-.64.35,0,0a2.16,2.16,0,0,1-.59-.05Zm-5.11-.45.4,0h.79l-1.19.49A2.13,2.13,0,0,0,354.27,7.76Zm6.33.49h0Zm-20.88-.07h-3l-1.07,0a.56.56,0,0,0-.25-.05l-.49,0c-2.17-.09-4.34-.21-6.52-.32q5.76.05,11.5.13A.53.53,0,0,0,339.72,8.18ZM322,7.73h1.86C323.26,7.76,322.64,7.76,322,7.73Zm78.9.71h0ZM779.76,24.5h0Zm1.93,1.07h0Zm0-1.69h0Zm14.12-.13h0a3,3,0,0,1-.92.14,11.08,11.08,0,0,0-1.83-.18l1.73.19c-.43,0-.95,0-1.5,0l-.23-.21,0,0,1.73.06h1ZM822.19,26h0ZM797.88,79.1l0,0h-.28Zm.71,7h0Zm-.17.13h0Zm2,8.26c1.92,0,3.41,0,4.82.09.69,0,1.87.05,1.41-.07-.64-.17.43-.13,1.52-.15,1.38,0,2.76,0,4.12,0,0,.07,0,.13-.06.2h0l-3.57.05h-7C801.19,94.62,800.76,94.58,800.44,94.53ZM704.87,23.2h0Zm34.09,0-.2.14a5.91,5.91,0,0,0-1.28.08c-.31.08.15.13.84.16l-.32.12h-2.16l-.89-.52.47,0C736.54,23.21,737.79,23.2,739,23.22ZM754.05,23a16.24,16.24,0,0,0-3.52,0,22.92,22.92,0,0,1-3.65-.25l1.6,0,1.59,0a1.57,1.57,0,0,0,.52,0s0,0,0,0a1.76,1.76,0,0,0-.56-.05l-1.46,0-1.78,0,1.82,0c1.14,0,2.3,0,3.37.06h0c1.48.07,3.08.08,4.68.09-.32.1-.64.21-1,.34Zm41.44,1.74h0Zm-38.15-2.23-.47.05c-.31,0-.85,0-.89,0a25.81,25.81,0,0,0-4.41-.23h-.15a.29.29,0,0,0-.22-.26c1.53,0,3.06,0,4.62,0,1,0,2.11,0,3.19,0Q758.17,22.32,757.34,22.54ZM443.18,9.1v0l.06-.07h0ZM834.74,41.61a14.12,14.12,0,0,1,4.32,0C837.51,41.68,836.11,41.66,834.74,41.61ZM796.9,23.71c-.46-.06-1.19-.07-1.88-.09s-1.21-.06-1.75-.08l.09-.08a3.08,3.08,0,0,0,.28-.16l1.09,0c4.14.09,8.36.15,12.34.29h0l2.35.2a9,9,0,0,1-1.64.3C804.3,24,800.71,23.81,796.9,23.71ZM808.84,22h0c.18.38.66.63.89,1l-1.88-.09C809,22.82,808.82,22.42,808.84,22Zm-10.24.86a1.78,1.78,0,0,0,.44.06c.27,0,.58,0,.93,0s1,0,1.33,0,.5.06.74.1a1.78,1.78,0,0,0-.47,0,4,4,0,0,0,.72.1h0l-.54.09c-2.09-.08-4.36-.08-6.56-.12H793.9a1.12,1.12,0,0,0,.24-.24h.43C796,22.84,797.28,22.84,798.6,22.86ZM771,22.15h.45c3.1,0,6,.16,9.23.09,1.07.05,2.1.12,3.24.15a42.72,42.72,0,0,0,4.27.07h1a6.11,6.11,0,0,1,2.38,1.34c-2.05-.19-4.9-.1-7.29-.17h0c-2.1-.12-4.56-.09-6.84-.13-1-.07-2.2-.09-3.41-.09h-.29q-.81-.24-1.66-.46c2.1,0,4.2,0,6.33,0h3.17c.65,0,1.43,0,2.1,0h0c.57,0,1.26,0,1.92,0a13.13,13.13,0,0,0,1.88,0c.27,0,0-.05-.33-.06-4.91-.12-9.83-.24-14.58-.4h0a15.64,15.64,0,0,0-2.78-.18,36.74,36.74,0,0,0-3.82-.55A33.16,33.16,0,0,1,771,22.15Zm-18.18-.47c2.42.09,5.29,0,7.5.2h0l.5,0c-.4,0-.8.08-1.19.14l-10.07-.16a.59.59,0,0,1-.41-.24l3.35,0h.32ZM622.33,15v0h0Zm-22.14-4a5.72,5.72,0,0,0,2.73-.28c.59-.2,2-.2,1.52.82h0l-2,0H600A1.31,1.31,0,0,0,600.19,10.94Zm-5.61-.39-1.09.07A2.32,2.32,0,0,1,594.58,10.54Zm-105.81-.4h0Zm-62.45-2,.34,0a.75.75,0,0,0,.09.22,3.37,3.37,0,0,0,.32-.19l1.79.14h0l.88.06-4.19,0-.34-.08a1,1,0,0,0-.76.09h-1.72l.1-.16a7.51,7.51,0,0,0-.85.13c-1.9-.07-3.83-.14-5.84-.2l-.22,0,1.25,0,.13-.33c3,.06,6.09.12,9,.23ZM422,7.49h0l.07.14-.34,0a8,8,0,0,0-.89,0,1,1,0,0,0,.06-.13Zm.89.11a1.71,1.71,0,0,1-.43,0,1.17,1.17,0,0,1,.24-.11C422.92,7.55,423,7.58,422.92,7.61Zm-2,0,.66.08h0l-.54.09h-.26A.75.75,0,0,0,420.87,7.65Zm1.07-.42-.89,0A.52.52,0,0,1,421.95,7.23Zm-3.59.2a.81.81,0,0,0,.5.33l-1.46,0,.13-.32Zm-28.13-.72h.45c3.1,0,6,.16,9.23.09,1.07.05,2.1.12,3.24.15a42.71,42.71,0,0,0,4.27.07h0c1.36,0,2.77,0,3.77.13-.22.18.21.36,2.63.28l.76,0a1.88,1.88,0,0,0,0,.28h-.1a11.12,11.12,0,0,0-2,.06c-.23.1.84.12,1.59.13h.57c0,.09,0,.18,0,.28h-.3a22.08,22.08,0,0,0-2.65,0c-.42.11,1.34.15,2.47.18h.49s0,0,0,0l.25,0h.26a10.24,10.24,0,0,1-2.63.17h-.71l-.89-.08c-2.06-.2-5-.11-7.41-.18h0c-2.1-.12-4.56-.09-6.84-.13-1-.07-2.2-.08-3.41-.09h0c-1.55,0-3.14-.06-4.64-.11l-2.38-.07.3-.14-.13-.19c3.7.06,7.43.09,11.23.08h3.17c.65,0,1.43,0,2.1,0h0c.57,0,1.26,0,1.92,0a13.15,13.15,0,0,0,1.88,0c.27,0,0-.05-.33-.06-4.91-.12-9.83-.24-14.58-.4h0a20.68,20.68,0,0,0-4-.17c-.55,0-1.16,0-1.75,0l-.16-.23c.51,0,.34,0,0-.07l-.17-.25A29.54,29.54,0,0,1,390.23,6.71ZM353.6,5.89v0l.06,0,1,0a15.16,15.16,0,0,1,1.64,0l.06,0,0,0a7.06,7.06,0,0,1,.74.07,3.54,3.54,0,0,0,1,.09h0c1.74,0,3.12.11,4.85.1h0c.91,0,1.92,0,2.92,0h0c1.87.08,3.86.09,5.87.09H372c2.42.09,5.29,0,7.5.2h0a17.08,17.08,0,0,0,2.43,0c1,0,2.19,0,3.31,0l-.34.22q-.68,0-1.44,0h0c-1.25-.06-2.61,0-3.92,0h0l-16.2-.25c-3.24,0-6.45-.16-9.81-.06h-.36l-.17-.1-.17-.29Zm-6.8,0h.87a3,3,0,0,0-1.22.55c.95.41,1.31.56,1.6.3h.12a3.71,3.71,0,0,0,.87,0,3,3,0,0,0-.89-.07,4.05,4.05,0,0,0,.39-.72l1.55,0a2,2,0,0,1-1.21.94,1.62,1.62,0,0,0,.91.12,2.69,2.69,0,0,0,.3.19l-2,0c-1,0-2.13-.06-3.2-.06a9.29,9.29,0,0,0,.18-1.22Zm-3.17,0c-.13.1-.25.22-.38.34a1.48,1.48,0,0,1-.28,0,1.35,1.35,0,0,0-.06-.22c0-.05,0-.09,0-.14Zm-34.72-.23-.13,0c.52-.07,1.35,0,2.06-.05h3.35c3.28.12,6.75.12,10.19.13,1.42.07,3,0,4.45,0h.38c1.11.06,2.33,0,3.51,0h.74l.17.21C325.33,5.92,316.94,5.9,308.91,5.65Zm28.68.89c-.86-.06-1.78-.07-2.72-.07a5,5,0,0,1,.5-.25h2.51a3.06,3.06,0,0,1,.43.3ZM271.35,7h0c0-.09,0-.18,0-.27A1,1,0,0,0,271.35,7Zm-9.93.13h0ZM255,7h0S254.88,7,255,7Zm-9.94.24h0Zm-3.56-.36h0Zm-6.82.36h0Zm4.74.29L235,7.69l-1.76,0-.3-.2Q236.2,7.47,239.45,7.5Zm-11,0a12.06,12.06,0,0,1,2.13,0l-.24.15c-.7,0-1.3-.06-1.9-.11ZM158.62,6.1h0Zm-.46-.18h0ZM100.75,20.38h0ZM99.12,23.7h0Zm-.49-3.24h0Zm18-3.1h0Zm.4-.48h.17l-.2,0Zm5.06,9.31h0ZM150.33,6Zm-.5,1.37h0Zm-14.11,0h0ZM124,8.71h0Zm-.19-1-.08,0h-.19A1.32,1.32,0,0,1,123.78,7.67Zm-.44.91.37,0-.48,0A.16.16,0,0,0,123.34,8.57ZM122,7.6h0Zm-5.41,4.61h0Zm0-.89h0Zm-.24-.75h0Zm-.21.93h0Zm-1,1.33h0Zm-1.46,1.86h0ZM111.27,19h0Zm-1.6-4.39h.18l-.46,0Zm-1.32-3.28h0Zm-.95,1.78h0Zm-.67,1.58h0ZM103.52,8h0ZM103,12.26h0Zm-.49.13h0Zm-.72-4.56H102l-.24,0S101.82,7.84,101.82,7.83Zm-.75,3h0Zm-1.95,1.64h0Zm-1.46,6.34h0Zm-.49.93h0ZM42,58.44h-.24l.1-.07ZM80.1,24.67h0Zm-4.56-.8h.17a4.19,4.19,0,0,1-.54,0Zm-.32.13h0Zm0,2.62h0Zm-.85-2.7h0ZM72.8,28h0Zm-.49,1.77h0Zm-1-1.42h0Zm-1.46-1.2h-.13l-.06,0Zm-2,3.1h0Zm-5.8-2.08h0Zm-4.39-2.21h0ZM66,27h0ZM61,16.56h0ZM56.72,28.17h0Zm-2-1.2h0Zm-.49,2.31h0Zm-1.79-1.15h0Zm.33-11.31h0ZM86.34,30h0Zm.45.13h0ZM84,28.93h0ZM96.69,17.54h0Zm-.91-.18h0Zm-.06-5.81h0Zm-2.44,1h0Zm0,2.66-.19,0-.08,0Zm-.49-.4h0Zm-1.46,9h0ZM90.74,15h0Zm-2.33,1.42h0Zm-.5-.31h0Zm-1.46.31h0Zm-1.36,1h0Zm-3.41,2.79h0Zm0-10.6h0Zm-1.15,7h0Zm-3.79,4.27H76.5l-.08,0ZM76.2,10h0Zm-.49,9.71h0Zm-.55-4.66h0Zm-.9,2h-.16s0,0,0,0Zm-1-.75h0Zm-2.93,0h0Zm-.5-7.4h0Zm-.54-.13h0Zm-.43,1.46h0Zm-1,1.06h0Zm-4.4,5.36h0ZM58.07,23.9h0ZM57.2,12h-.09C56.91,12,57.24,12,57.2,12Zm-.5,6.95h0Zm-4.89-3.59h0Zm-1,.27h0Zm.23.84h0Zm0-5.29h0Zm-1.7.9h0Zm-2.93,2.57h0Zm-1,3.77h0ZM45,16.83h0Zm-2.93,8.11h0Zm-3.55,2h0Zm-.1,57.91-2.39,0h2.39Zm1.09,0h0ZM41.45,74.1a17.78,17.78,0,0,1-5-.28,11.46,11.46,0,0,1,1.68.16h4A2.58,2.58,0,0,0,41.45,74.1ZM43.56,74l-.5,0h2.65V74A21.49,21.49,0,0,0,43.56,74Zm4.08.26a1.58,1.58,0,0,1,.09-.79h0l2.25,0c.06.37.42.68,1,.94A22.59,22.59,0,0,1,47.64,74.28Zm-.2,21.27h0c-.84-2.41,1.68-2.41,2.76-1.94a7.87,7.87,0,0,0,7.35-.2c.23-.12.59,0,.88-.08a7.28,7.28,0,0,1,1.38-.07c.37,1,2.53,1.11,3.17,1.94a3,3,0,0,1-.63.41H51Zm19.55,22c-1,.32-2,.6-2.94.88a2.87,2.87,0,0,1-.32-.33,5.93,5.93,0,0,1-3.76.79c-.21,0-.46,0-.62-.06a5.44,5.44,0,0,0-5.17-.15c-.76.34-2.53.34-1.94-1.39h0l2.52,0H67.41A3.17,3.17,0,0,0,67,117.55ZM84.2,92.4a.44.44,0,0,1-.29.18H80.32a.53.53,0,0,1,.65-.68c-.24-.14-1.34-.07-2-.18h5.39l.08.06c-.41,0-.83.09-1.3.11C82.91,92.34,83.54,92.38,84.2,92.4Zm42.45,35.32c-.86,0-1.72,0-2.58,0,1.25,0,2.49,0,3.72,0Zm3.94-.06H133Zm173,2.05.2-.12h1.55Zm319.05-3.28h-.47a3.27,3.27,0,0,1,.28-.22l.21,0C622.66,126.31,622.65,126.36,622.65,126.43Zm2.13,1.17h0Zm22,1.11h1.82A8,8,0,0,1,646.75,128.71ZM755,121.57l0,0c1.11,0,2.22,0,3.33,0C757.21,121.58,756.08,121.61,755,121.57Zm14.44-11.32q-.76,0-1.52,0a4.55,4.55,0,0,1,1.19-.27C769.59,110,769.5,110.14,769.4,110.25ZM803.4,91h0Zm14.66-2.92h0Zm-8.53,2.06h0Zm9.37-1.79-1.48,0,1.67-.08S819,88.35,818.9,88.36ZM822,87.25h0Zm-12.18-5,1.76,0,.28.18c-.87-.06-1.81-.1-2.91-.12h0C808.77,82.3,809.26,82.28,809.78,82.27Zm-4.08,1.59s0,0,0,0h-.37ZM804.62,82h-1.26v-.09h1.26S804.58,82,804.62,82Zm.27-.28-1.54,0v-.05a4.18,4.18,0,0,0-.84.05h-1.16l-.16-.06s0,0,0,.05c-.85,0-1.67,0-2.44-.06l0-.05c1.84-.06,3.78,0,5.64,0h.11l-.15.07C804.44,81.59,804.77,81.66,804.89,81.73Zm4.39-5.48h0Zm-2.46-2h0Zm10.83-17.61.14-.07.1.07Z"/><path d="M841.91,60.12l-.63.8.52-.05C842,60.64,841.87,60.38,841.91,60.12Z"/><path d="M558,129.63l-10.38-.72C550.55,129.85,554.53,129.9,558,129.63Z"/><path d="M575.29,130.81a4.65,4.65,0,0,0,.91,0l.36-.09-2-.68A7.17,7.17,0,0,1,575.29,130.81Z"/><path d="M518.92,8.87s0-.09-.06-.13-.17,0-.17,0,0,.09.06.13S518.92,8.89,518.92,8.87Z"/><path d="M47.3,94.74c2.33.08,2.11-.62,1.66-1.24C47.44,93.48,47.38,94.12,47.3,94.74Z"/><path d="M37.55,94.78l0-.74H35.95C36.52,94.27,36.09,94.95,37.55,94.78Z"/><path d="M139.26,130.43c1.26.6,1-.36,2.71-.25C141.9,129.43,139.08,129.67,139.26,130.43Z"/><path d="M197.11,133.21l0-.74C195.57,132.12,195.52,133.58,197.11,133.21Z"/><path d="M195,133c-1,.06-1.25.43-1.12,1h1.63C195.71,133.44,195.11,133.3,195,133Z"/><path d="M166.19,134.78c.19.47.7-.16.56-.49S166.06,134.45,166.19,134.78Z"/><path d="M138,135.12c.48.43,1,.85,2.68.73C139.79,135.63,139.85,134.95,138,135.12Z"/><path d="M118.5,135.93c-.09-.21.22-.23.55-.25.23-.48-2.45-.35-1.63.25Z"/><path d="M43.23,136.17l0,.49h2.71C45.32,136.49,43.86,135.52,43.23,136.17Z"/><path d="M134.72,136.86c1.16.75,3.48-.3,0,0Z"/><path d="M41.56,137.41c-1,.22-.92.91-2.2,1,1,.84,1.91-.43,3.25-.25C42.44,137.82,41.68,137.75,41.56,137.41Z"/><path d="M36.14,137.67c-.14.95,3.11.81,3.25,0C38.41,138.12,38,137.47,36.14,137.67Z"/><path d="M73.47,138.54c-.38.17,2.12.67,1.62.24A2.66,2.66,0,0,0,73.47,138.54Z"/><path d="M66.94,139.55c.44.72,1.38-.33,2.71,0C69.53,139,67.28,139.4,66.94,139.55Z"/><path d="M114.47,135.07l-.82.13c-1.66-.18-1.06.68-2.72.51l-.82.13-.28.37a1.28,1.28,0,0,0-.53.54l-1.92-.17a2.75,2.75,0,0,0,2.7.23l-.28.38c1.19,0,1.71.19,1.6.73a3.14,3.14,0,0,1,3.24.23c.7-.34,3.07-.11,1.65-.74,3.38.4,4.09-.07,6.5-.27-2.83-.75-6.59-1.07-8-2.44Z"/><path d="M121.33,132.22c-1.31.83,1.93,1-1.12,1.24,1,.78,4.44.42,4.83,1.46,1.18,0,1.73-.2,1.65-.74,2,.77,4.37-.16,6.48.47,1.35-.22,1.63-.92,2.75-1.24a6.41,6.41,0,0,0,3.23.48c.62-.38,1.56-.61,2.18-1l6.75,1.08c-1.33-1.44-4.65-1.52-7.54-1.21l.28-.37c-1.84-.3-4.87-.07-6.48-.48l-.28.37-.81-.12C129.57,133.63,124.58,132.5,121.33,132.22Z"/><path d="M146.7,134.85c2.66.84,4.73.44,9.2.47.24-.51-.35-.65-.52-1l-.8-.29.28-.45c-.51,0-.37-.18-.13-.23a64.5,64.5,0,0,1-6.9.25l.26.37-.82.13C146.62,134.15,146.79,134.56,146.7,134.85Z"/><path d="M163.51,134.06c-.1-.2-.54-.25-.53-.49v-.24l-.8-.29.29-.45c-.93.09-1-.19-1.07-.49-1.87.48-5.74,0-5.46,1.5l1-.13.62.37C160.7,133.84,161.5,134,163.51,134.06Z"/><path d="M189,132l-.81-.12.28-.37c-2.18-.37-5-1.15-6.5,0l.26.37a11.66,11.66,0,0,0-2.18.34l.29-.46c-.7-.29-.85-.09-1.63,0l.26.37-.81-.12c-5.59.15-9.65-1-13,.54l.81.12-.28.37a29,29,0,0,0,10.83,0c1,0,.3.83,1,1,.72-.26,2-.24,2.73-.51l-.26-.37a9,9,0,0,0,2.71,0l-.28.37c1.67-.19,1,.68,2.69.49.7-.7,2.25-.82,3.81-.51C189.45,132.63,188,132.45,189,132Z"/><path d="M203.66,131.46l.29-.37.81.12c.61-.92-2-.38-1.58-1.23a81.25,81.25,0,0,1-10.3.27c-.36.42-1.65.41-2.19.75l.81.12-1.63.25-.82.13.81.12c.45.6,1.94.34,3,.31a6.15,6.15,0,0,0,.84-.57l-.28.37c3,.36,5.24.13,5.38,1,2,.35,1.06-.68,2.72-.5l-.26-.37.82-.13C202.13,131.43,203,131.51,203.66,131.46Z"/><path d="M141.3,134.37c-2.52-1.16.19,1.36.54.25C141.92,134.33,141.55,134.49,141.3,134.37Z"/><path d="M128.25,136.14l-.82.12-.26-.37c-1.17.38-3.06.43-3.82,1,1.78.61,5.92.48,9.74,0C132.42,136,130.62,135.9,128.25,136.14Z"/><path d="M35.71,134.22a15.48,15.48,0,0,0,1.9-.13Z"/><path d="M214.29,129.64H217A19,19,0,0,0,214.29,129.64Z"/><path d="M41.42,133.58a9.35,9.35,0,0,0,1.09-.12Z"/><path d="M48,137a1.66,1.66,0,0,0-.2.5Z"/><path d="M104.16,135.85h1.08A2.81,2.81,0,0,0,104.16,135.85Z"/><path d="M124.88,131.35h-2.71C123.08,131.4,124,131.35,124.88,131.35Z"/><path d="M204.48,131.58l2.43.24-.08-.12A4.46,4.46,0,0,0,204.48,131.58Z"/><path d="M189.86,131.38l-.33-.47C189.5,131.07,189.58,131.22,189.86,131.38Z"/><path d="M189.25,130l-.42-.05.7,1c0-.25.35-.48.46-.63A8,8,0,0,1,189.25,130Z"/><path d="M179,132.16l-.53-.49A1.39,1.39,0,0,0,179,132.16Z"/><path d="M166,132.69l-3.27.3A23.43,23.43,0,0,0,166,132.69Z"/><path d="M154.58,134a7.16,7.16,0,0,0,2.37-.58Z"/><path d="M133,131.56l1.06.74A4.08,4.08,0,0,0,133,131.56Z"/><path d="M90.39,126.28,89,126.16A4.13,4.13,0,0,0,90.39,126.28Z"/><path d="M44.24,134.54c.62.33,1.21.55,1.72.88l-1.3-1.6C44.39,134.06,44.12,134.31,44.24,134.54Z"/><path d="M110.11,135.83a1.54,1.54,0,0,0-.16-.5Z"/><path d="M110.11,135.83l-1.71.32A9.27,9.27,0,0,0,110.11,135.83Z"/><path d="M204.3,131.83l.17-.25-3.26.26C202.18,131.93,203.49,132.27,204.3,131.83Z"/><path d="M159.87,130.09a5.61,5.61,0,0,0,1,0l-1.24-.57C159.47,129.68,159.57,129.88,159.87,130.09Z"/><path d="M127.43,136.27a1.82,1.82,0,0,0,.3-1Z"/><path d="M15.06,29.48c-1-.24-1-1-2.92-.78A3.38,3.38,0,0,0,15.06,29.48Z"/><path d="M24.26,29.69l0-.53H23.07l0,.53Z"/><path d="M5.32,37.19H4.17l0,.53H5.36Z"/><path d="M6.56,53.54c2.09-.59-1.71-2-2.95-1C3.28,53.48,6.09,52.94,6.56,53.54Z"/><path d="M11.4,48l3.06.07A12.59,12.59,0,0,0,11.4,48Z"/><path d="M9.76,61.84l-.9-.52C9,61.58,9.08,61.81,9.76,61.84Z"/><path d="M17.91,62.53l.52.05-.63-.79C17.84,62.05,17.65,62.31,17.91,62.53Z"/><path d="M283.5,131a4.74,4.74,0,0,0,.91,0,7.1,7.1,0,0,1,.69-.72l-2,.67Z"/><path d="M539.86,9.24h4.79A8.11,8.11,0,0,0,539.86,9.24Z"/><path d="M448.35,7.54a.49.49,0,0,0,.64-.36c.06-.39-.2-.64-.62-.78s-.6.13-.66.4S447.94,7.44,448.35,7.54Z"/><path d="M446.82,2.21c-.68,0-.69.68-.76,1.18h1.27C447.18,3,447.67,2.23,446.82,2.21Z"/><path d="M536.87,9.29c.14,0,.27-.17.39-.24-.19-.28-.52-.23-.81-.21a1.38,1.38,0,0,0-.51.18C536.09,9.45,536.52,9.31,536.87,9.29Z"/><polygon points="447.59 3.51 447.32 3.39 447.47 3.62 447.59 3.51"/><polygon points="446.96 5.14 446.69 5.01 446.84 5.24 446.96 5.14"/><polygon points="176.65 0.81 176.39 0.68 176.53 0.91 176.65 0.81"/><path d="M349.2,1.22V.14l-1.27.54A1.38,1.38,0,0,0,349.2,1.22Z"/><path d="M349.36,1.43a1.47,1.47,0,0,0,.51.19s.1-.13.15-.19c-.18-.06-.35-.14-.53-.18C349.16,1.15,349.09,1.23,349.36,1.43Z"/><path d="M344.14,1.76h.63Q344.46,1.21,344.14,1.76Z"/><polygon points="345.04 1.89 344.77 1.76 344.92 1.99 345.04 1.89"/><polygon points="349.35 2.62 349.2 2.85 349.47 2.72 349.35 2.62"/><path d="M170.69.14l.63.54C171.16.46,171.64-.31,170.69.14Z"/><polygon points="199.81 2.31 199.81 2.31 199.81 2.31 199.81 2.31"/><path d="M244.75,3.39c-1.55-.61-1.22.4-1.27,1.08A2.05,2.05,0,0,0,244.75,3.39Z"/><path d="M244,1.69s-.14,0-.22-.07a.63.63,0,0,0-.08.23s.14,0,.22.07A.63.63,0,0,0,244,1.69Z"/><path d="M682,11.11h4.79A8.11,8.11,0,0,0,682,11.11Z"/><path d="M590.45,9.41a.49.49,0,0,0,.64-.36c.06-.39-.2-.64-.62-.78s-.6.13-.66.4S590,9.31,590.45,9.41Z"/><path d="M588.92,4.08c-.68,0-.69.68-.76,1.18h1.27C589.28,4.85,589.77,4.1,588.92,4.08Z"/><path d="M679,11.16c.14,0,.27-.17.39-.24-.19-.28-.52-.23-.81-.21a1.38,1.38,0,0,0-.51.18C678.19,11.32,678.62,11.18,679,11.16Z"/><polygon points="589.69 5.38 589.42 5.26 589.57 5.49 589.69 5.38"/><polygon points="589.06 7.01 588.79 6.88 588.94 7.11 589.06 7.01"/><polygon points="318.75 2.68 318.49 2.55 318.63 2.78 318.75 2.68"/><path d="M485.68,6.67c.86.31,2.5,1,2.73-.94.05-.46.94-.8,1.2.11.1.33.26.94.46.73.94-1,2.73.14,3.55-1.13.3-.46,1-.79.31-1.32s-.94,0-1.23.37-.76.9-1.39.22c-1.1-.15-2.13-.6-3.31,0s-1.63-.18-1.75-1.09c-.32.23-.77.4-.93.69C484.86,5.16,484.51,6.25,485.68,6.67Z"/><path d="M483.48,7.55l.72-2.41c-3.45-1.15-4.38-.58-4,2.51A9.9,9.9,0,0,1,483.48,7.55Z"/><path d="M490.71,7.62a4.07,4.07,0,0,0-2.16.72C490.09,9,490.09,9,490.71,7.62Z"/><path d="M496.67,5.74c-.25.6-1.51.84-1,2.07C496.6,7.22,497,6.67,496.67,5.74Z"/><path d="M491.3,3.09V2L490,2.55A1.38,1.38,0,0,0,491.3,3.09Z"/><path d="M498.79,7.33c.2-.48.1-.55-.16-.34a6.8,6.8,0,0,0-.56.55,2.57,2.57,0,0,0,.36.2A4.29,4.29,0,0,0,498.79,7.33Z"/><path d="M491.46,3.3a1.47,1.47,0,0,0,.51.19s.1-.13.15-.19c-.18-.06-.35-.14-.53-.18C491.26,3,491.19,3.1,491.46,3.3Z"/><path d="M486.24,3.63h.63Q486.56,3.08,486.24,3.63Z"/><polygon points="487.14 3.76 486.87 3.63 487.02 3.86 487.14 3.76"/><polygon points="491.45 4.49 491.3 4.72 491.57 4.59 491.45 4.49"/><path d="M312.79,2l.63.54C313.26,2.33,313.74,1.56,312.79,2Z"/><polygon points="341.91 4.18 341.91 4.18 341.91 4.18 341.91 4.18"/><path d="M386.06,3.56s-.14,0-.22-.07a.63.63,0,0,0-.08.23s.14,0,.22.07A.63.63,0,0,0,386.06,3.56Z"/><path d="M110.44,126.78h-4.79A8.11,8.11,0,0,0,110.44,126.78Z"/><path d="M203.49,133.81c.68,0,.69-.68.76-1.18H203C203.12,133,202.64,133.8,203.49,133.81Z"/><path d="M114.37,127c-.16-.44-.59-.29-.93-.27-.14,0-.27.17-.39.24.19.28.52.23.81.21A1.38,1.38,0,0,0,114.37,127Z"/><polygon points="202.71 132.51 202.98 132.63 202.83 132.41 202.71 132.51"/><polygon points="473.65 135.22 473.92 135.34 473.77 135.12 473.65 135.22"/><path d="M306.72,131.22c-.86-.31-2.5-1-2.73.94-.05.46-.94.8-1.2-.11-.1-.33-.26-.94-.46-.73-.94,1-2.73-.14-3.55,1.13-.3.46-1,.79-.31,1.32s.94,0,1.23-.37.76-.9,1.39-.22c1.1.15,2.13.6,3.31,0s1.63.18,1.75,1.09c.32-.23.77-.4.93-.69C307.54,132.73,307.9,131.64,306.72,131.22Z"/><path d="M308.93,130.34l-.72,2.41c3.45,1.15,4.38.58,4-2.51A9.9,9.9,0,0,1,308.93,130.34Z"/><path d="M295.73,132.16c.25-.6,1.51-.84,1-2.06C295.81,130.67,295.42,131.23,295.73,132.16Z"/><path d="M301.1,134.8v1.08l1.27-.54A1.38,1.38,0,0,0,301.1,134.8Z"/><path d="M293.61,130.56c-.2.48-.1.55.16.34a6.8,6.8,0,0,0,.56-.55,2.57,2.57,0,0,0-.36-.2A4.3,4.3,0,0,0,293.61,130.56Z"/><path d="M300.94,134.59a1.47,1.47,0,0,0-.51-.19s-.1.13-.15.19c.18.06.35.14.53.18C301.15,134.88,301.21,134.79,300.94,134.59Z"/><path d="M306.16,134.26h-.63Q305.85,134.81,306.16,134.26Z"/><polygon points="305.26 134.13 305.53 134.26 305.38 134.03 305.26 134.13"/><polygon points="300.95 133.4 301.1 133.18 300.83 133.3 300.95 133.4"/><path d="M479.61,135.88l-.63-.54C479.14,135.56,478.66,136.34,479.61,135.88Z"/><path d="M439.78,130.77c-.23-.21-.74.43-.54.71.76,1.11,1.08,2.61,3,2.78-.11-1.24-.6-2.58,1.27-3.25C442.34,130.45,441,131.87,439.78,130.77Z"/><path d="M405.55,132.64c1.55.61,1.22-.4,1.27-1.08A2.05,2.05,0,0,0,405.55,132.64Z"/><path d="M406.34,134.34s.14,0,.22.07a.63.63,0,0,0,.08-.23s-.14,0-.22-.07A.63.63,0,0,0,406.34,134.34Z"/><path d="M397.83,7.69a5.85,5.85,0,0,0-1,0c-.23.06.33.08.75.09L405,8c.43,0,.78,0,.79-.07-.22,0-.47-.05-.8-.06Z"/><path d="M183.47,6.28l-3.76.08c-.46,0-1,0-.93.09a5.34,5.34,0,0,0,1.15.05h1.21c1,0,2,0,2.84,0,.53,0,1.28-.07,1.14-.13A9.15,9.15,0,0,0,183.47,6.28Z"/><path d="M271.74,5.24a4.31,4.31,0,0,0,.68,0c.09,0-.35-.07-.75-.07h-8C266.28,5.28,269,5.26,271.74,5.24Z"/><path d="M257.82,5.2c.33,0,.57,0,.54-.06a5.27,5.27,0,0,0-1,0,2.32,2.32,0,0,0-.45,0A3.76,3.76,0,0,0,257.82,5.2Z"/><path d="M295.17,6.17a2.09,2.09,0,0,0-.41,0c-.06,0,.05.06.45.05.17,0,.31,0,.43,0S295.56,6.16,295.17,6.17Z"/><path d="M778.58,23.13a5.85,5.85,0,0,0-1,0c-.23.06.33.08.75.09l7.44.18c.43,0,.78,0,.79-.07-.22,0-.47-.05-.8-.06Z"/><path d="M840.27,26.91a9.74,9.74,0,0,0,2,.1c.57,0,1.36,0,1.24-.06a12.65,12.65,0,0,0-2.12-.11A2.9,2.9,0,0,0,840.27,26.91Z"/><path d="M820.82,90.75c-.23.07.5.07,1,.09,1.55,0,3.12.07,4.75,0h2.16a7.56,7.56,0,0,0,1.73-.05c.11-.09-.79-.09-1.54-.1-2.26,0-4.55,0-6.77-.06A6.46,6.46,0,0,0,820.82,90.75Z"/><path d="M813.59,81.89c-.19.08.6.06,1.08.09,2.33.1,4.83,0,6.55,0a9.4,9.4,0,0,0,2,0c.1-.08-.64-.09-1.32-.1l-7.13-.05A6.25,6.25,0,0,0,813.59,81.89Z"/><path d="M834.39,86a9.87,9.87,0,0,0,2.23.12,4.71,4.71,0,0,0,1.24-.06,11.18,11.18,0,0,0-2.21-.13A4.17,4.17,0,0,0,834.39,86Z"/><path d="M827.33,77.14a9.74,9.74,0,0,0,2,.1c.57,0,1.36,0,1.24-.06a12.66,12.66,0,0,0-2.12-.11A2.9,2.9,0,0,0,827.33,77.14Z"/><path d="M824.29,90.5a4.42,4.42,0,0,0-.64,0c-.14,0,.2.06.64.06a1.58,1.58,0,0,0,.56-.06A1.47,1.47,0,0,0,824.29,90.5Z"/><path d="M820.23,81.7a4.39,4.39,0,0,0-.46,0c-.22,0-.49,0-.53,0a1,1,0,0,0,.34,0C819.92,81.75,820.26,81.74,820.23,81.7Z"/><path d="M817.56,81.68a1.82,1.82,0,0,0-.41,0,1.2,1.2,0,0,0-.58.06c.13,0,.26,0,.45,0C817.43,81.74,817.59,81.71,817.56,81.68Z"/></g></g></svg>