<svg xmlns="http://www.w3.org/2000/svg" viewBox="0 0 261.39 354.39"><defs><style>.cls-1{fill:#6bb29f;}</style></defs><title>bubbles</title><g id="Layer_2" data-name="Layer 2"><g id="OBJECTS"><path class="cls-1" d="M80.5,192.21c5,0,5-7.78,0-7.78s-5,7.78,0,7.78Z"/><path class="cls-1" d="M106.22,168.82l-.51.14a1.93,1.93,0,0,0,0,3.7l.51.14a2.06,2.06,0,1,0,0-4Z"/><path class="cls-1" d="M105.23,189.62a8.53,8.53,0,0,0-1.54-.56,1.67,1.67,0,0,0-2,2,8.53,8.53,0,0,0,.56,1.54,2.54,2.54,0,0,0,1.7,1.7,2.44,2.44,0,0,0,3-3,2.54,2.54,0,0,0-1.7-1.7Z"/><path class="cls-1" d="M168.07,198.92c3.32,0,3.32-5.16,0-5.16s-3.32,5.16,0,5.16Z"/><path class="cls-1" d="M173.94,172.3a2.55,2.55,0,0,0,.7-1.07c.18-.7-.51-1.6-1.29-1.29l-.37.15a.76.76,0,0,0-.45,1.1l.19.29.38-1.43a2.56,2.56,0,0,0-.85,1c-.66,1,.87,2.22,1.69,1.31Z"/><path class="cls-1" d="M183.39,203.23c4.16,0,4.17-6.47,0-6.47s-4.17,6.47,0,6.47Z"/><path class="cls-1" d="M181.2,226.54a1.74,1.74,0,0,0,0-3.47,1.74,1.74,0,0,0,0,3.47Z"/><path class="cls-1" d="M181.2,224.85a.05.05,0,0,0,0-.1.05.05,0,0,0,0,.1Z"/><path class="cls-1" d="M200.91,177.17c3.5,0,3.5-5.44,0-5.44s-3.5,5.44,0,5.44Z"/><path class="cls-1" d="M204,194.88l0,.73a1.32,1.32,0,0,0,1.31,1.31l.73,0a2,2,0,0,0,1.84-1.24,2,2,0,0,0-.42-2.2,2,2,0,0,0-3.44,1.43Z"/><path class="cls-1" d="M189.23,258.65a5.56,5.56,0,0,0,3.81-1.58,5.39,5.39,0,0,0,0-7.62,5.39,5.39,0,0,0-7.62,0,5.39,5.39,0,0,0,0,7.62,5.6,5.6,0,0,0,3.81,1.58Z"/><path class="cls-1" d="M202.37,266.32c2.71,0,2.72-4.22,0-4.22s-2.72,4.22,0,4.22Z"/><path class="cls-1" d="M177.84,299a2.29,2.29,0,0,0-.37.77.84.84,0,1,0,1.63,0,2.33,2.33,0,0,0-.37-.77.52.52,0,0,0-.89,0Z"/><path class="cls-1" d="M178.29,300.83a1.59,1.59,0,0,0,0-3.19,1.59,1.59,0,0,0,0,3.19Z"/><path class="cls-1" d="M176.83,297.1a.05.05,0,0,0,0-.1.05.05,0,0,0,0,.1Z"/><path class="cls-1" d="M57.88,290.91a4.21,4.21,0,0,0,2.88-1.19,4.08,4.08,0,0,0-2.88-7A4.21,4.21,0,0,0,55,283.95a4.08,4.08,0,0,0,2.88,7Z"/><path class="cls-1" d="M58.61,286.15a.05.05,0,0,0,0-.1.05.05,0,0,0,0,.1Z"/><path class="cls-1" d="M69.26,274a6.3,6.3,0,0,0,4.32-1.79,6.11,6.11,0,0,0,0-8.64,6.11,6.11,0,0,0-8.64,0,6.11,6.11,0,0,0,0,8.64A6.35,6.35,0,0,0,69.26,274Z"/><path class="cls-1" d="M181.93,340.45c8,0,8-12.37,0-12.37s-8,12.38,0,12.38Z"/><path class="cls-1" d="M198.72,329.44c5.07,0,5.08-7.87,0-7.87s-5.08,7.88,0,7.88Z"/><path class="cls-1" d="M192.88,345.41a.94.94,0,0,0,0-1.87.94.94,0,0,0,0,1.88Z"/><path class="cls-1" d="M192.88,344.53a.05.05,0,0,0,0-.1.05.05,0,0,0,0,.1Z"/><path class="cls-1" d="M194,344.11l-.8-.66a.42.42,0,0,0-.6.6l.66.8c.43.51,1.24-.3.73-.73Z"/><path class="cls-1" d="M178.29,322.74c3,0,3-4.69,0-4.69s-3,4.69,0,4.69Z"/><path class="cls-1" d="M178.29,320.45a.05.05,0,0,0,0-.1.05.05,0,0,0,0,.1Z"/><path class="cls-1" d="M55.51,343.06l.13,0a9,9,0,0,0,4-2.33L61,338.88a9,9,0,0,0,1.24-4.57,10.06,10.06,0,0,0-2.65-6.4,6.78,6.78,0,0,0-2.91-1.87,6.81,6.81,0,0,0-3.49-.78,9,9,0,0,0-4.57,1.24l-.11.07A6.81,6.81,0,0,0,46,328.9,6.79,6.79,0,0,0,44.42,332l-.32,2.4a6.79,6.79,0,0,0,.78,3.47,4.5,4.5,0,0,0,1.16,2,6.81,6.81,0,0,0,2.53,2.32l2.15.91a9.08,9.08,0,0,0,4.79,0Z"/><path class="cls-1" d="M22.46,345.76l.14.22,5.86-4.52c-1-.92-2.51-2.32-4-1.85s-1.84,2.11-2.27,3.5A3.74,3.74,0,0,0,29,346a2,2,0,0,0,.13-.22,3.89,3.89,0,0,0-6.72-3.93,3.84,3.84,0,0,0,0,3.93Z"/><path class="cls-1" d="M23.58,316c4.71,0,4.71-7.31,0-7.31s-4.71,7.31,0,7.31Z"/><path class="cls-1" d="M23.58,312.42a.05.05,0,0,0,0-.1.05.05,0,0,0,0,.1Z"/><path class="cls-1" d="M7.21,300.24l.85-.59a3,3,0,0,0,0-5.22l-.85-.59a3.66,3.66,0,0,0-3.74,0,3.7,3.7,0,0,0,0,6.4,3.66,3.66,0,0,0,3.74,0Z"/><path class="cls-1" d="M32.34,286.68a2.77,2.77,0,1,0-2.77-2.77,2.8,2.8,0,0,0,2.77,2.77Z"/><path class="cls-1" d="M219.88,332h-.25l1,.13c-.42-.07-.83-.22-1.26-.31a5.54,5.54,0,0,0-1.28-.15,2.7,2.7,0,0,0-2.66,2.31,2.63,2.63,0,0,0,.19,1.44,2,2,0,0,0,.19.41q-.3-.77-.19-.45c0,.2.1.4.15.6a4.59,4.59,0,0,0,2.28,2.92,3.7,3.7,0,1,0,1.87-6.9Z"/><path class="cls-1" d="M249.51,317.28a2.62,2.62,0,1,0-2.62-2.62,2.65,2.65,0,0,0,2.62,2.62Z"/><path class="cls-1" d="M255.64,259.95c7.66,0,7.67-11.91,0-11.91s-7.67,11.91,0,11.91Z"/><path class="cls-1" d="M252,230.53c3.62,0,3.63-5.62,0-5.62s-3.63,5.63,0,5.63Z"/><path class="cls-1" d="M234.14,212.18a1.92,1.92,0,1,0-3.21.85,1.94,1.94,0,0,0,3.21-.85Z"/><path class="cls-1" d="M242.5,193.18a1.22,1.22,0,0,0,0-2.44,1.22,1.22,0,0,0,0,2.44Z"/><path class="cls-1" d="M206.74,212.81a1.88,1.88,0,0,0,0-3.75,1.88,1.88,0,0,0,0,3.75Z"/><path class="cls-1" d="M8.26,184.45c2.53,0,2.54-3.94,0-3.94s-2.54,3.94,0,3.94Z"/><path class="cls-1" d="M68.1,224.5c5.25,0,5.26-8.16,0-8.16s-5.26,8.16,0,8.16Z"/><path class="cls-1" d="M76.48,205.93l-.49.21a1.21,1.21,0,0,0,0,2.3l.49.21c.86.36,1.78-.53,1.78-1.36s-.92-1.72-1.78-1.36Z"/><path class="cls-1" d="M2.9,219.75a2,2,0,0,0,0,1.35,2.56,2.56,0,0,0,3.72,1.51,2.53,2.53,0,0,0-2-4.63,2.63,2.63,0,0,0-1.77,1.77Z"/><path class="cls-1" d="M9,257.15a5.51,5.51,0,0,0,3.78-1.57,5.34,5.34,0,0,0,0-7.56A5.55,5.55,0,0,0,9,246.46,5.51,5.51,0,0,0,5.21,248a5.34,5.34,0,0,0,0,7.56A5.55,5.55,0,0,0,9,257.15Z"/><path class="cls-1" d="M249.07,206.63l-.73.09a.56.56,0,0,0,0,1.13l.73.09c.84.11.84-1.42,0-1.31Z"/><path class="cls-1" d="M222.8,189.11a.8.8,0,0,0,0-1.59.8.8,0,0,0,0,1.59Z"/><path class="cls-1" d="M161.5,147.59a1.59,1.59,0,1,0-1.59-1.59,1.61,1.61,0,0,0,1.59,1.59Z"/><path class="cls-1" d="M34.36,346.79a9.6,9.6,0,0,0-1.85,1.3,2.12,2.12,0,0,0,0,3,9.6,9.6,0,0,0,1.85,1.3,3.23,3.23,0,1,0,0-5.59Z"/><path class="cls-1" d="M6.8,338.14a7,7,0,0,0,4.81-2,6.8,6.8,0,0,0,0-9.61,7.06,7.06,0,0,0-4.81-2,7,7,0,0,0-4.81,2,6.8,6.8,0,0,0,0,9.61,7.06,7.06,0,0,0,4.81,2Z"/><path class="cls-1" d="M2.42,352.19a1.88,1.88,0,0,0,0-3.75,1.88,1.88,0,0,0,0,3.75Z"/><path class="cls-1" d="M71.75,302.38a4.56,4.56,0,0,0,3.12-1.29,4.42,4.42,0,0,0-3.12-7.54,4.56,4.56,0,0,0-3.12,1.29,4.42,4.42,0,0,0,3.12,7.54Z"/><path class="cls-1" d="M22.42,178.84a2.21,2.21,0,0,0,0,1.45,2.72,2.72,0,1,0,1.9-3.34,2.83,2.83,0,0,0-1.9,1.9Z"/><path class="cls-1" d="M20.65,198a2.91,2.91,0,0,0-1.3-.43l1.3.75-.26-.35a1.35,1.35,0,0,0-1.32-.63,1.31,1.31,0,0,0-1.1.95l-.07.39a1.57,1.57,0,0,0,1.05,1.85,2.22,2.22,0,0,0,1,.09,1.42,1.42,0,0,0,.71-2.62Z"/><path class="cls-1" d="M77.95,158.76l-.37.36a1,1,0,0,0,0,1.46l.37.36a1.55,1.55,0,1,0,0-2.19Z"/><path class="cls-1" d="M101.66,147.57a.84.84,0,0,0,0-1.69.84.84,0,0,0,0,1.69Z"/><path class="cls-1" d="M176.68,141.45l-.27-.65a.33.33,0,0,0-.63,0l-.27.65c-.4,1,1.58,1,1.18,0Z"/><path class="cls-1" d="M206.33,152.16a2.42,2.42,0,0,0-.86-.18,1.31,1.31,0,0,0,0,2.63,2.42,2.42,0,0,0,.86-.18,1.18,1.18,0,0,0,0-2.26Z"/><path class="cls-1" d="M234,153.5l.84.32a1.32,1.32,0,0,0,1.61-1.61l-.32-.84a1.81,1.81,0,0,0-1.21-1.21,1.74,1.74,0,0,0-2.13,2.13A1.81,1.81,0,0,0,234,153.5Z"/><path class="cls-1" d="M249.56,178.63l-.41.23a1.67,1.67,0,0,0,0,2.85l.41.23a1.92,1.92,0,1,0,0-3.32Z"/><path class="cls-1" d="M256.36,153.33a1.5,1.5,0,0,0,0-3,1.5,1.5,0,0,0,0,3Z"/><path class="cls-1" d="M33.8,157.35a1.88,1.88,0,0,0,0-3.75,1.88,1.88,0,0,0,0,3.75Z"/><path class="cls-1" d="M9,158.16a1.22,1.22,0,0,0,0-2.44,1.22,1.22,0,0,0,0,2.44Z"/><path class="cls-1" d="M61.53,145a1.17,1.17,0,0,0,0-2.34,1.17,1.17,0,0,0,0,2.34Z"/><path class="cls-1" d="M117.72,118.3a1.5,1.5,0,0,0,0-3,1.5,1.5,0,0,0,0,3Z"/><path class="cls-1" d="M146.91,115.51a.89.89,0,0,0,0-1.78.89.89,0,0,0,0,1.78Z"/><path class="cls-1" d="M52.77,106.58a1.45,1.45,0,0,0,0-2.91,1.45,1.45,0,0,0,0,2.91Z"/><path class="cls-1" d="M173.91,135.94a.89.89,0,0,0,0-1.78.89.89,0,0,0,0,1.78Z"/><path class="cls-1" d="M201.48,43.1c0,.48,0,.92.36,1.26a.78.78,0,0,0,1.06,0c.41-.34.36-.78.36-1.26a.89.89,0,0,0-1.78,0Z"/><path class="cls-1" d="M223.53,48.91a.7.7,0,0,0,0-1.41.7.7,0,0,0,0,1.41Z"/><path class="cls-1" d="M249.07,17.86a1,1,0,0,0,0-2.06,1,1,0,0,0,0,2.06Z"/><path class="cls-1" d="M201.23,13.82c.38,0,.76,0,1.13.07.68.07.82-.78.5-1.2s-.5-.63-.77-.93a1.21,1.21,0,1,0-.86,2.07Z"/><path class="cls-1" d="M246.15,40c-.56.07-1.39.13-1.39.89s.83.82,1.39.89c1.14.15,1.15-1.93,0-1.78Z"/><path class="cls-1" d="M94.39,7.18l.43-.2a1.27,1.27,0,0,0,0-2.19l-.43-.2a1.52,1.52,0,0,0-2.26,1.3,1.52,1.52,0,0,0,2.26,1.3Z"/><path class="cls-1" d="M56.45,15.94l.4-.26a1.22,1.22,0,0,0,0-2.07l-.4-.26a1.5,1.5,0,1,0,0,2.59Z"/><path class="cls-1" d="M34.53,39.94a1.22,1.22,0,0,0,0-2.44,1.22,1.22,0,0,0,0,2.44Z"/><path class="cls-1" d="M1.69,19.82a.8.8,0,0,0,0-1.59.8.8,0,0,0,0,1.59Z"/><path class="cls-1" d="M68.1,52.21a1.08,1.08,0,0,0,0-2.16,1.08,1.08,0,0,0,0,2.16Z"/><path class="cls-1" d="M2.52,132a1.84,1.84,0,0,0-.18,1.13.85.85,0,0,0,1.63,0A1.87,1.87,0,0,0,3.79,132a.66.66,0,0,0-1.27,0Z"/><path class="cls-1" d="M102.39,133.19a.33.33,0,0,0,0-.66.33.33,0,0,0,0,.66Z"/><path class="cls-1" d="M146.18,206.73c5.85,0,5.86-9.09,0-9.09s-5.86,9.09,0,9.09Z"/><path class="cls-1" d="M20.67,338c6.64,0,6.65-10.31,0-10.31S14,338,20.67,338Z"/><path class="cls-1" d="M68.83,351.93c9.59,0,9.61-14.91,0-14.91s-9.61,14.91,0,14.91Z"/><path class="cls-1" d="M65.18,314.67a3,3,0,1,0-3-3,3.07,3.07,0,0,0,3,3Z"/><path class="cls-1" d="M10.57,291.36a6.05,6.05,0,0,0,4.15-1.72,5.87,5.87,0,0,0,0-8.3,6.1,6.1,0,0,0-4.15-1.72,6.05,6.05,0,0,0-4.15,1.72,5.87,5.87,0,0,0,0,8.3,6.1,6.1,0,0,0,4.15,1.72Z"/><path class="cls-1" d="M45.48,273.48a5.8,5.8,0,0,0,4-1.65,5.62,5.62,0,0,0,0-8,5.62,5.62,0,0,0-8,0,5.62,5.62,0,0,0,0,8,5.85,5.85,0,0,0,4,1.65Z"/><path class="cls-1" d="M24.31,261.91a2.81,2.81,0,1,0-2.81-2.81,2.84,2.84,0,0,0,2.81,2.81Z"/><path class="cls-1" d="M181.93,318.92c5.61,0,5.62-8.72,0-8.72s-5.62,8.72,0,8.72Z"/><path class="cls-1" d="M203.83,354.39c11.82,0,11.84-18.37,0-18.37s-11.84,18.38,0,18.38Z"/><path class="cls-1" d="M100.21,210.29a8.37,8.37,0,0,0,5.73-2.38,9,9,0,0,0,2.38-5.73,8.19,8.19,0,0,0-2.38-5.73,8.11,8.11,0,0,0-11.47,0,9,9,0,0,0-2.38,5.73,8.19,8.19,0,0,0,2.38,5.73,8.43,8.43,0,0,0,5.73,2.38Z"/><path class="cls-1" d="M55,248.88a8.79,8.79,0,0,0,4.5-1,10.5,10.5,0,0,0,6.17-6.17,8.79,8.79,0,0,0,1-4.5l-.42-3.1a11.66,11.66,0,0,0-3-5.15l-2.36-1.83A11.62,11.62,0,0,0,55,225.54a8.79,8.79,0,0,0-4.5,1A8.75,8.75,0,0,0,46.71,229a8.75,8.75,0,0,0-2.41,3.76,8.79,8.79,0,0,0-1,4.5l.42,3.1a11.66,11.66,0,0,0,3,5.15l2.36,1.83A11.62,11.62,0,0,0,55,248.88Z"/><path class="cls-1" d="M80.87,272.7a8,8,0,0,0,4.12-.92,9.61,9.61,0,0,0,5.65-5.65,8,8,0,0,0,.92-4.12l-.38-2.84a10.67,10.67,0,0,0-2.75-4.71l-2.16-1.67a10.63,10.63,0,0,0-5.39-1.46,8,8,0,0,0-4.12.92,9.61,9.61,0,0,0-5.65,5.65,8,8,0,0,0-.92,4.12l.38,2.84a10.67,10.67,0,0,0,2.75,4.71l2.16,1.67a10.63,10.63,0,0,0,5.39,1.46Z"/><path class="cls-1" d="M193.18,286.48a10.82,10.82,0,0,0,7.41-3.07,11.66,11.66,0,0,0,3.07-7.41,10.59,10.59,0,0,0-3.07-7.41,10.48,10.48,0,0,0-14.83,0A11.66,11.66,0,0,0,182.7,276a10.59,10.59,0,0,0,3.07,7.41,10.89,10.89,0,0,0,7.41,3.07Z"/><path class="cls-1" d="M8.26,214.42a5.85,5.85,0,0,0,4-1.66,5.67,5.67,0,0,0,0-8,5.89,5.89,0,0,0-4-1.66,5.85,5.85,0,0,0-4,1.66,5.67,5.67,0,0,0,0,8,5.89,5.89,0,0,0,4,1.66Z"/><path class="cls-1" d="M210.3,194.79A5.65,5.65,0,0,0,209,197l.77-1.32-.19.2a2.76,2.76,0,0,0,0,3.83l.19.2L209,198.6a5.6,5.6,0,0,0,1.27,2.22l.86.67,1,.43a4.1,4.1,0,0,0,2.78-.22,4.24,4.24,0,0,0,2.62-3.9,4.45,4.45,0,0,0-2.11-3.68,4.22,4.22,0,0,0-2.72-.51,3.94,3.94,0,0,0-2.45,1.17Z"/><path class="cls-1" d="M184.56,146.84c0-.1-.05-.2-.08-.29a6.51,6.51,0,0,0-1.57-2.71,5.85,5.85,0,0,0-3-1.68,5.89,5.89,0,0,0-7.24,7.24,6.66,6.66,0,0,0,1.13,2.25,7.84,7.84,0,0,0,1.86,1.72l-1.21-.94.18.17,1.2.93a4.41,4.41,0,0,0,2.2.7,5.66,5.66,0,0,0,3.77-.7A7.07,7.07,0,0,0,184,151.4a6.16,6.16,0,0,0,.6-4.56Z"/><path class="cls-1" d="M171.72,217.79a3.94,3.94,0,1,0-3.94-3.94,4,4,0,0,0,3.94,3.94Z"/><path class="cls-1" d="M68.83,153.1a1.27,1.27,0,0,0,0-2.53,1.27,1.27,0,0,0,0,2.53Z"/><path class="cls-1" d="M107.5,115.69a1.08,1.08,0,0,0,0-2.16,1.08,1.08,0,0,0,0,2.16Z"/><path class="cls-1" d="M34.72,4.23c-.08.06-.17.13-.26.18.26-.14-.07,0-.18,0a1.5,1.5,0,0,0,.8,2.89l.44-.11A1.51,1.51,0,0,0,36.41,5l-.22-.38a1.09,1.09,0,0,0-1.48-.39Z"/><path class="cls-1" d="M70.29.1a.05.05,0,0,0,0-.1.05.05,0,0,0,0,.1Z"/><path class="cls-1" d="M170.26,184c4.77,0,4.77-7.41,0-7.41s-4.77,7.41,0,7.41Z"/><path class="cls-1" d="M251.7,216.35A4.79,4.79,0,0,0,255,215a4.64,4.64,0,0,0,0-6.56,4.64,4.64,0,0,0-6.56,0,4.64,4.64,0,0,0,0,6.56,4.82,4.82,0,0,0,3.28,1.36Z"/></g></g></svg>